<svg width="317" height="352" viewBox="0 0 317 352" fill="none" xmlns="http://www.w3.org/2000/svg">
<path d="M77.1105 0.940082C48.6602 -3.07257 41.8053 6.72756 41.9341 12.1292C21.8332 72.3189 109.195 148.714 104.556 154.115C99.9174 159.517 68.2199 149.485 48.1191 148.714C28.0183 147.942 5.59829 139.068 0.186545 174.178C-4.14285 202.267 67.9623 207.231 104.556 206.203C95.4075 208.26 67.524 219.629 29.178 248.644C-18.7545 284.912 18.3545 301.117 41.9341 299.96C65.5138 298.802 124.657 263.691 109.195 273.337C93.7324 282.983 67.4468 333.141 86.3879 347.803C105.329 362.464 138.573 321.18 145.917 314.235C153.262 307.29 171.816 294.944 166.018 308.834C160.22 322.724 171.816 336.614 190.371 347.803C208.925 358.992 276.572 347.031 300.925 321.18C325.056 295.565 308.197 228.279 301.118 200.027L300.925 199.258C293.967 171.478 264.976 184.21 241.009 182.667C217.043 181.123 278.118 131.351 300.925 95.4688C323.732 59.5865 322.572 27.1766 295.513 17.5308C268.455 7.88506 191.917 115.532 184.186 117.461C176.455 119.39 179.934 48.7832 171.816 21.775C163.699 -5.23322 112.673 5.95589 77.1105 0.940082Z" fill="white" fill-opacity="0.24"/>
</svg>
