<svg width="364" height="349" viewBox="0 0 364 349" fill="none" xmlns="http://www.w3.org/2000/svg">
<path d="M35.3726 117.021C25.3167 123.466 12.2884 141.375 4.42586 153.572C2.14294 157.113 0.225285 161.8 0.101613 166.012C-0.429024 184.083 1.21213 232.641 2.85329 234.03C4.87087 235.738 5.6779 284.402 4.87087 286.537C4.06384 288.671 4.06384 334.774 8.90603 341.604C12.6189 346.841 34.4219 346.745 46.1748 345.976C47.1552 345.912 48.1296 345.962 49.102 346.102C54.6972 346.911 65.4049 347.743 73.0651 345.873C80.209 344.129 107.673 347.209 126.611 346.586C131.96 346.409 136.111 342.214 136.239 336.864C136.788 313.95 132.327 277.097 148.119 247.264C170.716 204.575 204.611 226.346 209.453 243.848C212.844 256.105 212.772 304.803 212.16 336.222C212.03 342.932 217.363 348.489 224.074 348.548C269.681 348.953 343.144 349.37 347.859 348.434C353.024 347.41 354.585 340.608 354.719 337.335C357.813 289.809 364 193.903 364 190.488C364 187.456 360.819 176.572 358.694 169.787C358.206 168.232 358.066 166.597 357.975 164.97C357.744 160.868 356.311 155.752 354.719 152.923C350.836 146.023 344.362 141.539 341.403 136.701C275.227 44.4951 184.435 -2.46185 176.769 0.0994342C169.102 2.66072 146.101 39.3725 113.82 51.752C88.9086 61.3054 54.7353 95.9893 39.1893 113.885C38.1021 115.137 36.7684 116.126 35.3726 117.021Z" fill="white" fill-opacity="0.24"/>
</svg>
