<svg width="356" height="344" viewBox="0 0 356 344" fill="none" xmlns="http://www.w3.org/2000/svg">
<path d="M0.166677 172.061C9.18791 237.311 74.5918 304.49 106.166 329.923C111.178 336.939 138.621 351.364 142.831 339.436C147.04 327.509 145.759 309.46 152.776 303.613L186.445 339.884C233.355 341.989 290.875 299.515 302.217 281.124C325.346 249.669 364.775 157.152 354.25 149.258C345.83 142.944 331.196 103.946 324.931 85.2364C323.127 64.8897 305.636 62.1417 297.115 63.3111C271.856 38.0531 246.496 69.1579 236.974 87.8675C242.236 74.1276 246.446 43.3152 221.187 29.9846C195.927 16.654 176.081 49.5712 169.315 67.6962C126.614 -43.86 80.8567 7.18222 63.3154 46.6479C44.0701 34.0189 44.2706 50.1559 46.7765 59.8031C90.3791 135.226 120.45 258.885 112.932 261.516C106.918 263.621 77.3485 179.369 63.3154 136.98C56.8001 119.148 40.161 86.1135 25.727 96.6376C11.293 107.162 7.34218 119.266 16.8645 140.022C2.43126 138.177 -0.835682 157.444 0.166677 172.061Z" fill="white" fill-opacity="0.24"/>
</svg>
