<svg width="448" height="493" viewBox="0 0 448 493" fill="none" xmlns="http://www.w3.org/2000/svg" class='svg left desktop'>
<path d="M44.1159 193.242C2.88581 245.426 -1.45401 338.509 1.52983 378.527C-0.158634 386.973 8.00951 416.356 19.5251 410.926C31.0407 405.496 43.2704 391.912 52.2789 392.724L48.8197 441.828C79.1498 476.206 149.039 486.694 170.089 481.723C208.625 475.837 302.549 438.466 301.13 425.538C299.995 415.195 318.36 377.524 327.685 359.981C341.226 344.415 331.342 330.217 324.707 325.064C325.885 289.598 286.088 293.674 266.042 300.145C279.588 294.179 304.809 275.476 297.33 248.392C289.851 221.309 252.482 230.525 234.733 238.518C286.699 130.169 218.579 133.952 178.023 149.387C174.119 127.014 162.543 138.496 157.243 147.034C132.115 230.621 62.7878 338.618 55.7729 335.195C50.1609 332.457 91.2273 252.506 112.462 212.873C120.98 195.771 133.655 160.885 116.215 158.159C98.7741 155.433 87.3062 161.169 78.7089 182.435C70.2456 171.016 54.0438 182.266 44.1159 193.242Z" fill="#D5DBD3"/>
<path d="M64.6104 438.91C64.6642 467.457 36.0922 502.26 21.7995 516.093C-5.05451 457.086 -60.1303 324.94 -65.6018 268.422C-71.0733 211.903 -3.16078 97.882 31.4794 47.9365C51.748 70.6679 48.7853 144.739 44.7704 178.933C84.7828 312.036 64.5433 403.227 64.6104 438.91Z" fill="#C6CFC4"/>
<path d="M61.6546 528.056C34.5923 528.685 1.01873 502.303 -12.3852 489.033C43.0127 462.379 167.177 407.488 220.648 401.156C274.119 394.824 383.592 456.899 431.644 488.727C410.504 508.403 340.221 507.095 307.723 503.981C182.346 544.61 95.4826 527.27 61.6546 528.056Z" fill="#C6CFC4"/>
</svg>
