<svg width="390" height="410" viewBox="0 0 390 410" fill="none" xmlns="http://www.w3.org/2000/svg" class='svg right desktop'>
<path d="M157.585 301.196C172.764 353.197 232.503 400.016 260.475 416.926C265.285 422.033 288.645 430.481 290.476 420.274C292.307 410.067 289.063 395.537 293.854 389.94L324.816 415.415C361.953 411.509 401.906 370.068 408.542 353.748C422.825 325.39 442.354 245.403 433.103 240.243C425.701 236.114 409.364 206.141 402.121 191.671C398.181 175.334 384.091 175.193 377.538 177.165C354.551 159.642 338.471 187.983 333.304 204.344C335.738 192.536 335.229 166.966 313.721 159.146C292.212 151.326 280.69 180.482 277.618 196.037C230.226 110.398 200.582 157.401 191.684 191.608C174.99 183.639 177.147 196.742 180.313 204.29C223.936 260.427 262.9 357.424 257.316 360.465C252.849 362.898 219.163 297.898 202.879 265.095C195.547 251.368 178.373 226.487 168.331 236.777C158.289 247.067 156.683 257.387 166.741 273.132C155.166 273.36 154.986 289.425 157.585 301.196Z" fill="#D5DBD3"/>
<path d="M390.462 412.285C380.561 423.216 357.545 426.589 347.274 426.909C357.517 395.022 382.389 325.37 399.94 301.865C417.491 278.36 483.075 258.379 513.674 251.327C513.521 267.06 486.647 294.343 473.229 306.018C442.265 370.8 402.837 398.623 390.462 412.285Z" fill="#C6CFC4"/>
<path d="M342.262 392.502C356.755 395.232 371.658 413.093 377.298 421.683C344.758 429.612 272.375 444.799 243.163 442.117C213.951 439.435 162.645 393.957 140.644 371.553C154.138 363.462 191.442 372.12 208.408 377.46C279.822 370.01 324.147 389.089 342.262 392.502Z" fill="#C6CFC4"/>
</svg>
