<svg width="186" height="232" viewBox="0 0 186 232" fill="none" xmlns="http://www.w3.org/2000/svg" class='svg left mobile'>
<path d="M1.32858 88.5937C-17.5172 112.447 -19.5009 154.994 -18.137 173.286C-18.9088 177.146 -15.1752 190.577 -9.91158 188.095C-4.64793 185.613 0.942117 179.404 5.05978 179.775L3.47863 202.219C17.3422 217.933 49.2877 222.728 58.9096 220.455C76.5238 217.765 119.455 200.683 118.807 194.774C118.288 190.046 126.682 172.827 130.945 164.808C137.134 157.693 132.616 151.204 129.584 148.848C130.122 132.637 111.931 134.5 102.768 137.458C108.96 134.731 120.489 126.182 117.07 113.802C113.651 101.423 96.5705 105.635 88.4574 109.289C112.21 59.764 81.0735 61.493 62.5359 68.5482C60.7514 58.3219 55.4603 63.5701 53.0378 67.4725C41.5517 105.679 9.8633 155.044 6.65684 153.479C4.09168 152.227 22.8627 115.683 32.5688 97.5671C36.4622 89.7499 42.2559 73.8039 34.2841 72.5578C26.3122 71.3117 21.0704 73.9336 17.1406 83.6539C13.2722 78.4346 5.86648 83.5767 1.32858 88.5937Z" fill="#D5DBD3"/>
<path d="M10.6971 200.886C10.7217 213.934 -2.33826 229.842 -8.87129 236.165C-21.1459 209.194 -46.3204 148.792 -48.8214 122.958C-51.3223 97.1235 -20.2803 45.0059 -4.4467 22.1764C4.81783 32.5667 3.46362 66.4237 1.62845 82.0534C19.9177 142.893 10.6664 184.576 10.6971 200.886Z" fill="#C6CFC4"/>
<path d="M9.34688 241.633C-3.02302 241.921 -18.3691 229.862 -24.4959 223.796C0.825875 211.613 57.5797 186.523 82.0209 183.629C106.462 180.735 156.501 209.108 178.465 223.657C168.802 232.65 136.677 232.052 121.822 230.629C64.5134 249.2 24.8093 241.274 9.34688 241.633Z" fill="#C6CFC4"/>
</svg>
