<svg width="286" height="512" viewBox="0 0 286 512" fill="none" xmlns="http://www.w3.org/2000/svg" class='svg desktop right'>
<path d="M142.067 422.766C123.24 445.86 75.5246 456.326 54.0206 458.672C69.8144 394.416 109.561 253.643 142.198 204.606C174.835 155.568 308.941 105.409 371.914 86.4585C374.41 117.342 322.876 175.349 296.797 200.492C243.393 332.733 165.601 393.898 142.067 422.766Z" fill="#D5DBD3"/>
<path d="M61.6932 157.526C40.1338 158.367 12.9868 139.185 2.1082 129.488C45.8674 108.878 144.017 66.2944 186.54 60.8429C229.063 55.3915 332.639 63.4612 371.405 86.5C354.847 101.442 283.402 138.081 257.454 136.21C158.128 168.191 88.6425 156.475 61.6932 157.526Z" fill="#E4E7E2"/>
</svg>
