<svg width="269" height="486" viewBox="0 0 269 486" fill="none" xmlns="http://www.w3.org/2000/svg" class='svg desktop left'>
<path d="M10.3005 127.605C-30.3253 149.755 -58.4995 208.144 -67.5084 234.571C-70.8934 239.515 -73.6827 260.549 -64.831 260.216C-55.9793 259.883 -44.4461 254.526 -38.902 257.503L-54.5134 287.986C-44.4816 318.263 -2.61373 344.045 12.2152 346.607C38.4844 353.353 108.793 355.062 111.412 346.401C113.507 339.472 135.54 320.372 146.294 311.689C159.207 305.422 156.755 293.638 153.915 288.53C164.345 266.152 137.763 257.902 123.167 256.575C133.465 256.452 154.71 251.364 157.313 231.99C159.915 212.615 133.484 208.318 119.944 208.591C182.764 153.425 138.135 137.26 107.968 136.073C111.573 120.689 101.032 124.879 95.3105 128.898C56.4219 175.538 -17.414 225.742 -20.9696 221.637C-23.8142 218.354 24.2824 178.389 48.6863 158.817C58.8039 150.196 76.4346 131.327 66.0163 124.824C55.598 118.32 46.6935 118.863 35.389 130.127C33.0878 120.51 19.6491 123.289 10.3005 127.605Z" fill="#E4E7E2"/>
<path d="M-43.6112 290.428C-51.3655 308.713 -79.1475 323.191 -92.0692 328.145C-93.1563 283.053 -92.3507 183.452 -80.4319 145.786C-68.513 108.121 6.06106 53.6759 41.8582 31.1617C48.6282 51.2401 26.5225 97.8378 14.6234 118.627C3.91585 214.731 -33.9183 267.572 -43.6112 290.428Z" fill="#C6CFC4"/>
<path d="M-69.8261 346.675C-87.3179 339.694 -101.607 313.649 -106.565 301.499C-63.8376 299.555 30.6047 298.301 66.5546 308.838C102.504 319.374 155.631 388.971 177.701 422.452C158.803 429.277 114.178 409.264 94.2282 398.404C2.90058 390.2 -47.9613 355.401 -69.8261 346.675Z" fill="#D5DBD3"/>
</svg>
