<svg width="583" height="538" viewBox="0 0 583 538" fill="none" xmlns="http://www.w3.org/2000/svg" class='svg desktop left'>
<path d="M135.715 76.0519C103.49 72.0348 68.2921 34.8169 54.7215 16.7101C125.154 -5.16856 282.161 -48.4513 346.73 -46.5531C411.299 -44.6549 530.282 48.2786 581.703 94.5081C553.153 114.136 469.979 100.212 431.961 90.7964C276.025 116.942 175.997 81.0732 135.715 76.0519Z" fill="#C6CFC4"/>
<path d="M111.396 86.5325C111.475 53.6624 78.5956 13.5718 62.1463 -2.36474C31.191 65.5642 -32.3027 217.691 -38.6357 282.766C-44.9686 347.842 33.1632 479.171 73.0207 536.701C96.3722 510.538 93.0037 425.247 88.4006 385.872C134.55 232.634 111.298 127.62 111.396 86.5325Z" fill="#C6CFC4"/>
<path d="M147.497 320.545C186.817 336.601 199.994 326.65 201.667 319.667C251.123 250.118 152.421 118.577 160.915 113.422C169.408 108.267 211.303 133.293 239.793 141.988C268.283 150.683 297.304 170.667 317.121 127.677C332.974 93.2839 231.532 59.2731 178.829 46.5668C192.624 47.4324 236.422 43.528 301.257 20.9858C382.3 -7.19181 334.787 -42.2156 300.657 -49.7684C266.527 -57.3211 169.845 -34.9262 195.282 -41.3799C220.718 -47.8336 275.572 -102.137 253.518 -128.216C231.464 -154.295 169.709 -114.049 156.814 -107.95C143.919 -101.851 113.129 -93.1162 126.201 -108.722C139.273 -124.327 127.46 -146.6 104.765 -168.074C82.0698 -189.548 -18.816 -200.126 -62.5445 -176.281C-105.875 -152.653 -104.897 -59.8267 -104.487 -20.8519L-104.476 -19.7904C-104.076 18.5327 -58.2235 13.3032 -24.4692 24.4707C9.28501 35.6383 -95.2041 76.1108 -140.171 113.424C-185.137 150.738 -194.625 192.781 -159.233 215.534C-123.842 238.286 22.671 129.457 34.3941 129.945C46.1173 130.432 16.8574 219.724 19.1814 257.501C21.5055 295.278 98.3477 300.476 147.497 320.545Z" fill="#E4E7E2"/>
</svg>
