<svg width="264" height="312" viewBox="0 0 264 312" fill="none" xmlns="http://www.w3.org/2000/svg" class='svg desktop right'>
<path d="M89.9304 212.112C118.146 241.741 174.465 252.442 199.097 254.089C204.095 255.848 222.699 253.417 220.389 245.933C218.078 238.449 210.863 229.824 212.137 224.408L241.746 230.765C265.31 215.268 277.749 173.608 276.543 160.356C276.293 136.375 261.663 75.9333 253.665 75.6784C247.267 75.4745 225.912 61.0277 216.035 53.8298C207.726 44.2344 198.223 49.0256 194.51 52.6206C173.01 48.8334 172.048 73.4258 174.254 86.1954C171.793 77.4285 162.584 60.4474 145.441 62.6584C128.298 64.8693 130.676 88.4275 134.008 99.9303C72.5135 58.8999 68.9207 100.718 74.8111 126.755C60.8464 127.197 66.8377 135.241 71.579 139.208C120.315 161.749 180.093 213.323 177.4 217.3C175.247 220.481 130.105 188.547 107.804 172.183C98.1249 165.514 77.9738 154.774 74.8036 165.161C71.6334 175.548 74.1344 183.029 86.3426 190.106C78.6553 194.273 84.1047 205.115 89.9304 212.112Z" fill="#E4E7E2"/>
<path d="M241.336 220.895C258.728 223.333 277.452 243.748 284.64 253.651C246.376 264.899 161.121 287.006 126.223 285.446C91.3252 283.886 27.7565 232.652 0.334414 207.23C15.9342 196.852 60.7927 205.069 81.272 210.474C165.806 197.625 219.596 217.847 241.336 220.895Z" fill="#C6CFC4"/>
<path d="M295.377 230.412C293.417 246.95 274.442 265.115 265.199 272.13C253.76 236.081 231.076 155.704 231.848 122.588C232.62 89.4714 279.904 28.1678 303.45 1.6556C313.604 16.2346 306.724 58.9289 302.014 78.4536C315.907 158.335 297.826 209.74 295.377 230.412Z" fill="#D5DBD3"/>
</svg>
