<svg width="302" height="391" viewBox="0 0 302 391" fill="none" xmlns="http://www.w3.org/2000/svg" class='svg mobile left'>
<path d="M72.4668 153.168C55.9062 151.103 37.8183 131.977 30.8445 122.672C67.0393 111.429 147.725 89.1859 180.906 90.1614C214.088 91.1369 275.233 138.895 301.658 162.652C286.986 172.739 244.244 165.583 224.706 160.745C144.571 174.181 93.1676 155.748 72.4668 153.168Z" fill="#C6CFC4"/>
<path d="M59.9698 158.554C60.0101 141.662 43.1137 121.059 34.6605 112.87C18.7527 147.778 -13.8765 225.955 -17.131 259.397C-20.3854 292.839 19.7662 360.329 40.2488 389.893C52.249 376.448 50.518 332.618 48.1524 312.383C71.8685 233.635 59.9194 179.668 59.9698 158.554Z" fill="#C6CFC4"/>
<path d="M78.522 278.812C98.7282 287.063 105.5 281.949 106.36 278.361C131.775 242.619 81.0525 175.021 85.4172 172.372C89.782 169.723 111.312 182.583 125.952 187.052C140.593 191.52 155.507 201.79 165.691 179.697C173.838 162.023 121.707 144.545 94.623 138.015C101.712 138.46 124.22 136.454 157.538 124.869C199.186 110.389 174.769 92.3905 157.23 88.5091C139.691 84.6278 90.0064 96.1364 103.078 92.8199C116.15 89.5034 144.339 61.5972 133.005 48.1954C121.672 34.7935 89.9365 55.4758 83.3097 58.6099C76.6829 61.744 60.8604 66.2329 67.5779 58.2133C74.2954 50.1937 68.225 38.7477 56.5621 27.7124C44.8992 16.6772 -6.94563 11.2411 -29.4175 23.495C-51.6847 35.6372 -51.1825 83.3401 -50.9717 103.369L-50.9659 103.915C-50.7605 123.609 -27.197 120.921 -9.85082 126.66C7.49535 132.399 -46.2012 153.198 -69.3094 172.373C-92.4175 191.548 -97.293 213.154 -79.1055 224.847C-60.9179 236.539 14.3743 180.612 20.3988 180.863C26.4233 181.113 11.3867 227 12.5811 246.414C13.7754 265.827 53.2643 268.498 78.522 278.812Z" fill="#E4E7E2"/>
</svg>
