<svg width="441" height="496" viewBox="0 0 441 496" fill="none" xmlns="http://www.w3.org/2000/svg" class="svg bottom desktop">
<path d="M128.148 350.316C107.622 400.066 124.734 473.369 135.856 503.802C136.403 510.742 149.21 531.753 156.955 524.964C164.7 518.176 171.206 504.891 178.378 503.512L186.497 542.443C217.607 562.392 274.172 554.951 289.421 546.392C318.042 533.22 382.736 483.227 378.79 473.496C375.633 465.712 381.601 432.341 384.98 416.628C392.068 401.511 381.271 392.683 374.986 390.158C368.096 362.335 338.097 374.381 323.959 383.881C333.162 376.223 348.628 356.062 336.862 336.684C325.096 317.306 298.113 332.804 286.093 342.976C302.595 247.185 250.544 265.321 222.455 286.363C214.501 269.848 208.041 281.353 205.805 289.17C204.689 359.731 174.631 459.122 168.432 458.027C163.473 457.151 177.762 385.86 185.527 350.324C188.376 335.134 190.541 305.196 176.401 306.969C162.262 308.741 154.621 315.757 152.626 334.2C143.543 327.215 133.44 339.571 128.148 350.316Z" fill="#D9EBF0"/>
<path d="M152.568 416.078C166.92 447.062 156.406 493.754 149.355 513.227C93.5315 457.508 -26.5312 331.153 -60.1934 271.48C-93.8556 211.806 -84.5425 66.8357 -75.6781 1.80985C-44.4668 20.1839 -10.2622 101.545 2.93865 139.929C108.747 272.015 134.628 377.348 152.568 416.078Z" fill="#D9EBF0"/>
</svg>
