<svg width="255" height="348" viewBox="0 0 255 348" fill="none" xmlns="http://www.w3.org/2000/svg" class="svg bottom mobile">
<path d="M12.7453 228.91C-3.14884 261.351 10.1018 309.151 18.7139 328.995C19.1379 333.52 29.0545 347.222 35.0519 342.795C41.0493 338.368 46.0868 329.706 51.6405 328.806L57.9274 354.192C82.0177 367.2 125.819 362.348 137.626 356.767C159.789 348.178 209.884 315.578 206.828 309.233C204.384 304.158 209.005 282.397 211.622 272.151C217.11 262.294 208.75 256.537 203.883 254.891C198.548 236.748 175.318 244.602 164.37 250.797C171.497 245.804 183.472 232.657 174.362 220.021C165.251 207.385 144.357 217.491 135.049 224.124C147.828 161.661 107.522 173.487 85.7715 187.208C79.6127 176.439 74.6102 183.941 72.8789 189.038C72.0144 235.05 48.7394 299.861 43.9391 299.146C40.0989 298.575 51.1639 252.088 57.1765 228.916C59.383 219.01 61.0589 199.489 50.11 200.644C39.1611 201.8 33.2446 206.375 31.6996 218.401C24.6664 213.846 16.8433 221.904 12.7453 228.91Z" fill="#D9EBF0"/>
<path d="M31.6551 271.793C42.7683 291.997 34.6269 322.443 29.1671 335.141C-14.0595 298.809 -107.029 216.415 -133.095 177.503C-159.161 138.591 -151.95 44.0595 -145.086 1.65756C-120.918 13.6389 -94.4314 66.6928 -84.2095 91.722C-2.27729 177.852 17.7637 246.538 31.6551 271.793Z" fill="#D9EBF0"/>
</svg>
