<svg width="202" height="202" viewBox="0 0 202 202" fill="none" xmlns="http://www.w3.org/2000/svg" class='svg right mobile'>
<path d="M175.991 183.398C213.688 154.357 232.902 90.5115 237.796 62.2188C240.438 56.6511 239.884 34.8369 230.946 36.6012C222.009 38.3655 211.157 45.6641 205.047 43.5329L215.994 10.0561C200.928 -19.0819 154.25 -38.5258 138.775 -38.7394C111.006 -41.3616 39.3164 -31.7739 38.0509 -22.5544C37.0385 -15.1787 17.7359 7.7693 8.21113 18.3214C-3.89633 26.7668 0.492212 38.3409 4.19991 43.0723C-2.79035 67.4815 25.5391 71.5798 40.5775 70.5778C30.1381 72.3605 9.37833 80.9506 9.85496 101.049C10.3316 121.147 37.8702 121.255 51.5799 118.797C-3.34396 184.948 44.5909 194.18 75.4238 190.526C74.2392 206.733 84.2714 200.779 89.4356 195.777C121.424 142.139 188.336 79.254 192.608 82.8507C196.027 85.728 153.61 134.067 131.974 157.877C123.086 168.264 108.217 190.269 119.847 195.197C131.476 200.124 140.433 198.139 150.102 184.877C153.988 194.275 167.19 189.287 175.991 183.398Z" fill="#D9EBF0"/>
</svg>
