<svg width="360" height="476" viewBox="0 0 360 476" fill="none" xmlns="http://www.w3.org/2000/svg" class='svg right desktop'>
<path d="M409.506 434.55C497.192 367 541.883 218.493 553.268 152.683C559.413 139.733 558.123 88.9918 537.335 93.0957C516.547 97.1996 491.305 114.176 477.091 109.219L502.556 31.351C467.512 -36.425 358.936 -81.6522 322.941 -82.1491C258.349 -88.2484 91.5974 -65.9472 88.6539 -44.5021C86.299 -27.3462 41.4004 26.0317 19.2456 50.5761C-8.9168 70.2207 1.2911 97.1423 9.91532 108.148C-6.34423 164.924 59.5509 174.457 94.5309 172.126C70.2484 176.273 21.9605 196.254 23.0692 243.003C24.1778 289.752 88.2335 290.004 120.123 284.286C-7.63196 438.156 103.866 459.628 175.584 451.131C172.829 488.828 196.164 474.979 208.176 463.343C282.583 338.581 438.221 192.308 448.16 200.674C456.11 207.366 357.448 319.805 307.123 375.187C286.449 399.347 251.863 450.532 278.914 461.994C305.964 473.456 326.799 468.839 349.287 437.99C358.327 459.85 389.036 448.249 409.506 434.55Z" fill="#D9EBF0"/>
</svg>
