<svg width="512" height="512" viewBox="0 0 512 512" fill="none" xmlns="http://www.w3.org/2000/svg">
<rect width="512" height="512" rx="64" fill="#0C413E"/>
<path d="M411.888 139.014L411.731 138.726C413.476 132.16 414.959 120.398 414.959 120.398C412.011 125.12 403.077 133.226 399.534 135.985C395.879 138.925 391.913 141.483 387.704 143.617L393.759 134.681C388.25 134.184 382.703 134.213 377.2 134.766C352.998 136.306 332.774 145.495 316.756 156.766C316.756 155.463 316.634 154.177 316.564 152.891C316.407 150.141 315.268 147.53 313.341 145.507C311.414 143.484 308.821 142.176 306.008 141.806C305.765 141.759 305.526 141.697 305.292 141.62L305.868 141.485C308.399 140.975 310.688 139.675 312.383 137.782C314.079 135.89 315.088 133.511 315.256 131.009C315.395 127.523 315.011 124.02 314.872 120.516C314.872 120.516 314.872 120.516 314.767 120.381H313.249C313.249 120.77 313.249 121.092 313.249 121.413C313.353 122.783 313.044 124.152 312.359 125.354C311.674 126.557 310.644 127.539 309.393 128.183C307.793 129.062 305.996 129.55 304.158 129.604C300.092 129.774 296.044 129.96 291.944 130.197C290.866 130.251 289.8 130.432 288.768 130.738C288.342 130.87 287.922 131.023 287.512 131.195C287.572 130.018 287.724 128.847 287.965 127.692C288.325 125.832 288.911 124.02 289.71 122.293C290.552 120.597 291.935 119.209 293.654 118.334C295.373 117.459 297.337 117.145 299.255 117.436H300.459C300.459 116.759 300.616 116.167 300.686 115.49L289.64 114.255C285.223 113.711 280.74 114.475 276.779 116.447C272.817 118.419 269.564 121.508 267.445 125.306C265.037 129.503 262.664 133.768 260.256 137.897C260.099 138.168 259.907 138.421 259.593 138.895C259.593 138.489 259.593 138.388 259.593 138.269C260.605 129.796 261.623 121.334 262.647 112.884C262.749 112.232 262.894 111.588 263.083 110.955C263.524 108.946 264.602 107.121 266.167 105.737C267.732 104.353 269.704 103.479 271.807 103.238C272.97 103.18 274.135 103.18 275.297 103.238L275.524 101.41L268.038 100.564C266.045 100.26 264.035 100.074 262.019 100.005C259.146 99.9292 256.313 100.675 253.874 102.15C251.435 103.624 249.498 105.762 248.304 108.298C246.977 110.759 246.423 113.543 246.708 116.307C246.993 119.07 248.106 121.693 249.909 123.85C251.881 126.474 253.957 128.927 255.929 131.635C257.15 133.193 257.784 135.109 257.724 137.065C257.663 139.021 256.913 140.898 255.597 142.382C253.177 142.727 250.825 143.423 248.618 144.446C244.617 146.462 241.366 149.639 239.317 153.534C239.666 147.34 239.317 142.009 235.601 135.46C235.116 133.7 235.308 131.829 236.142 130.197C236.88 128.725 237.187 127.085 237.03 125.456C236.874 123.826 236.258 122.27 235.252 120.957C233.507 118.57 231.762 116.235 230.017 113.849C229.524 113.172 229.12 112.439 228.813 111.666C228.304 110.56 228.185 109.322 228.475 108.143C228.765 106.965 229.448 105.913 230.418 105.15C230.732 104.879 231.064 104.642 231.395 104.405L230.715 103.492L230.122 103.864L224.887 107.384C223.141 108.573 221.879 110.317 221.321 112.314C220.763 114.312 220.944 116.435 221.833 118.316C221.833 118.435 221.833 118.553 221.99 118.824C221.876 118.732 221.771 118.63 221.676 118.52C220.31 117.173 218.529 116.294 216.603 116.017C214.676 115.739 212.709 116.077 210.998 116.979C208.659 118.283 206.496 119.924 204.262 121.43C204.262 121.43 204.262 121.43 204.262 121.549L204.908 122.446C205.152 122.277 205.362 122.124 205.571 122.006C206.428 121.407 207.443 121.058 208.497 121.001C209.552 120.944 210.601 121.181 211.521 121.684C212.74 122.31 213.783 123.217 214.557 124.324C216.302 126.744 218.047 129.147 219.792 131.534C220.271 132.156 220.821 132.724 221.432 133.226C222.417 134.032 223.56 134.636 224.793 134.999C226.026 135.363 227.323 135.479 228.604 135.341C229.878 135.213 231.166 135.387 232.355 135.849C236.456 142.466 236.648 147.611 236.229 154.126C227.104 154.799 218.208 157.221 210.055 161.251L221.973 169.408C212.917 173.318 206.967 177.548 205.344 183.15C198.12 207.875 231.989 218.165 232.338 218.029C226.108 216.887 219.977 215.286 213.999 213.24C202.622 208.806 196.55 201.715 194.805 191.527C192.92 180.696 204.123 173.216 213.179 169.307L201.261 161.15C204.559 159.305 214.889 154.888 217.541 154.685C211.766 145.399 203.513 137.799 193.653 132.684C192.746 132.261 191.769 131.906 190.757 131.517C194.805 128.068 198.377 124.126 201.383 119.789C201.383 119.687 182.329 114.39 180.828 113.984C180.828 114.779 186.778 126.592 174.04 132.346C174.773 126.812 175.489 121.295 176.222 115.778C169.734 117.144 163.416 119.181 157.377 121.853L170.76 130.755C104.454 152.062 110.456 201.834 131.255 209.077C121.445 213.511 113.456 221.015 108.572 230.383C85.1027 274.858 65.839 303.053 69.4335 303.053C103.878 302.9 117 281.458 121.903 260.744C124.852 248.187 127.434 232.854 135.112 225.036C141.149 217.285 153.189 212.631 154.096 212.292C147.654 216.565 142.37 222.282 138.691 228.958C135.012 235.634 133.048 243.072 132.965 250.641C132.95 260.967 136.514 270.999 143.086 279.123C139.625 288.228 133.515 296.163 125.496 301.967C117.478 307.771 107.895 311.193 97.9103 311.819L98.1371 312.665C99.488 317.994 100.196 323.458 100.248 328.945V329.91C100.277 343.141 96.4674 356.113 89.2556 367.345C89.4368 381.742 94.149 395.742 102.761 407.47L105.954 411.329C113.405 413.613 143.679 413.461 278.124 411.447C375.001 410.009 415.971 408.943 409.341 405.761C404.595 403.476 385.244 403.019 327.33 402.935C322.427 393.948 313.144 372.574 319.286 348.001C321.694 338.423 324.283 329.239 327.051 320.45C320.984 317.692 315.42 313.994 310.579 309.5C301.483 339.933 300.809 372.152 308.625 402.918H278.229C258.424 402.918 239.038 402.444 220.786 401.818C213.685 397.722 202.517 391.664 202.221 391.478C192.002 385.012 183.606 376.178 177.793 365.774C171.98 355.369 168.933 343.724 168.928 331.89C168.928 331.044 168.928 330.198 168.928 329.352C162.751 333.701 150.606 335.393 146.803 335.833C153.782 360.102 168.649 381.747 190.861 396.25L196.218 400.887C158.075 399.347 127.347 397.841 112.253 399.99C105.948 387.68 104.182 373.646 107.249 360.226C110.316 346.806 118.031 334.811 129.109 326.238C130.645 326.373 132.18 326.458 133.733 326.458C155.527 326.458 183.934 314.425 190.687 289.819C196.602 268.326 188.942 251.893 182.189 244.125C189.378 249.202 202.971 257.782 202.971 289.074C231.291 315.542 302.291 298.873 302.797 298.703C292.537 271.626 299.307 245.344 299.307 245.344C298.871 302.105 350.677 321.77 375.21 320.568C385.158 333.258 390.534 348.764 390.513 364.705C390.517 371.686 389.494 378.633 387.477 385.334L398.522 393.035C404.457 381.241 407.012 368.117 405.919 355.037C404.826 341.957 400.126 329.403 392.311 318.69C389.093 314.305 385.396 310.27 381.283 306.657C374.63 303.63 368.493 299.635 363.083 294.811C355.564 288.189 349.55 280.12 345.425 271.118C362.647 231.636 380.637 204.948 389.484 192.966C385.9 188.206 381.143 184.395 375.647 181.881C385.261 181.255 397.964 189.192 397.964 189.192C408.207 195.284 413.04 199.921 416.635 206.86C419.322 212.038 438.167 213.765 443 205.946C438.097 190.241 427.837 162.131 411.888 139.014ZM261.321 140.825C263.836 137.815 267.035 135.411 270.667 133.799C274.3 132.188 278.267 131.412 282.259 131.534C283.603 131.534 284.964 131.635 286.377 131.754C284.216 132.986 282.465 134.795 281.335 136.966C280.762 138.11 279.961 139.133 278.979 139.975C277.997 140.818 276.852 141.463 275.611 141.874C275.619 141.953 275.619 142.032 275.611 142.111L265.63 141.925C263.886 141.925 262.141 141.925 260.396 141.925C260.623 141.552 260.989 141.231 261.321 140.825ZM285.383 186.061C280.702 179.866 274.689 174.733 267.759 171.016C266.904 170.61 266.014 170.254 265.072 169.814C269.599 167.72 273.832 165.076 277.67 161.945C275.332 160.693 260.221 156.36 257.848 155.599C257.639 156.191 261.338 164.653 248.426 168.596C249.944 164.551 251.479 160.49 253.05 156.445C249.53 155.358 245.895 154.66 242.214 154.363C243.969 151.173 246.683 148.576 249.996 146.917C254.899 144.565 260.326 144.649 265.561 144.768L277.897 145.005C279.624 145.87 281.086 147.16 282.137 148.745C283.329 150.596 285.022 152.096 287.03 153.08C289.039 154.065 291.287 154.497 293.532 154.33C297.51 154.177 301.506 153.923 305.484 153.788C306.625 153.737 307.767 153.823 308.887 154.042C310.14 154.228 311.326 154.712 312.339 155.45C313.353 156.188 314.163 157.158 314.697 158.273C303.758 166.301 293.909 175.638 285.383 186.061Z" fill="white"/>
</svg>
