<svg width="20" height="20" viewBox="0 0 20 20" fill="none" xmlns="http://www.w3.org/2000/svg">
<circle cx="10" cy="10" r="10" fill="#BFDDE6"/>
<path d="M13.8395 8.0181C13.9436 7.9048 14.0013 7.75305 14 7.59553C13.9987 7.43802 13.9385 7.28734 13.8325 7.17596C13.7265 7.06457 13.583 7.00139 13.4331 7.00002C13.2832 6.99865 13.1387 7.05921 13.0309 7.16864L8.85628 11.5541L6.96914 9.57164C6.86128 9.46221 6.71683 9.40166 6.56689 9.40303C6.41695 9.40439 6.27352 9.46758 6.16749 9.57896C6.06147 9.69034 6.00132 9.84102 6.00002 9.99853C5.99872 10.156 6.05636 10.3078 6.16053 10.4211L8.44797 12.8241C8.55521 12.9367 8.70064 13 8.85228 13C9.00391 13 9.14934 12.9367 9.25658 12.8241L13.8315 8.0181H13.8395Z" fill="#0C413E"/>
</svg>
