<svg width="32" height="32" viewBox="0 0 32 32" fill="none" xmlns="http://www.w3.org/2000/svg">
<path d="M15.3692 4V6.52618M20.4215 16.6309C20.4215 15.2909 19.8892 14.0059 18.9417 13.0583C17.9943 12.1108 16.7092 11.5785 15.3692 11.5785M24.2108 7.78927L22.6243 9.37572M25.4738 16.6309H28M18.9526 22.1696C18.6414 23.4821 17.9856 24.6878 17.0528 25.6622C16.12 26.6366 14.944 27.3444 13.6462 27.7124C12.3485 28.0805 10.9761 28.0955 9.67059 27.7559C8.36512 27.4163 7.17395 26.7344 6.22005 25.7807C5.26616 24.8269 4.58412 23.6358 4.24435 22.3304C3.90458 21.0249 3.91939 19.6525 4.28726 18.3547C4.65513 17.0569 5.36273 15.8808 6.33699 14.9478C7.31125 14.0149 8.51686 13.3589 9.82936 13.0475C10.6175 12.8618 11.0545 13.8812 10.7325 14.6239C10.3304 15.5534 10.2169 16.5823 10.4068 17.577C10.5967 18.5718 11.0812 19.4866 11.7974 20.2026C12.5135 20.9187 13.4284 21.4029 14.4232 21.5926C15.418 21.7823 16.4468 21.6687 17.3762 21.2665C18.1202 20.9444 19.1395 21.3801 18.9526 22.1696Z" stroke="#0C413E" stroke-width="1.5" stroke-linecap="round" stroke-linejoin="round"/>
</svg>
