<svg width="26" height="24" viewBox="0 0 26 24" fill="none" xmlns="http://www.w3.org/2000/svg">
<path d="M1.98951 20.7399C3.58951 22.6666 6.56551 22.6666 12.5202 22.6666H13.4802C19.4348 22.6666 22.4122 22.6666 24.0122 20.7399M1.98951 20.7399C0.389513 18.8119 0.938846 15.8866 2.03618 10.0333C2.81618 5.87325 3.20551 3.79192 4.68685 2.56259M24.0122 20.7399C25.6122 18.8119 25.0628 15.8866 23.9655 10.0333C23.1855 5.87325 22.7948 3.79192 21.3135 2.56259M21.3135 2.56259C19.8335 1.33325 17.7148 1.33325 13.4815 1.33325H12.5188C8.28551 1.33325 6.16818 1.33325 4.68685 2.56259" stroke="#0C413E" stroke-width="1.5"/>
<path d="M9.22656 6.6665C9.50203 7.44721 10.0129 8.12326 10.6887 8.60145C11.3645 9.07964 12.172 9.33644 12.9999 9.33644C13.8278 9.33644 14.6353 9.07964 15.3111 8.60145C15.9869 8.12326 16.4978 7.44721 16.7732 6.6665" stroke="#0C413E" stroke-width="1.5" stroke-linecap="round"/>
</svg>
