<svg width="32" height="32" viewBox="0 0 32 32" fill="none" xmlns="http://www.w3.org/2000/svg">
<path d="M18.3679 30.9996H13.6312C7.67717 30.9996 4.69936 30.9996 2.85047 29.1491C1.00158 27.2986 1 24.3223 1 18.3682L1 7.31571M1 7.31571L30.9991 7.31571M1 7.31571L1.94734 6.05257C3.80729 3.57365 4.73726 2.33419 6.06985 1.66631C7.40402 1 8.95292 1 12.0523 1L19.9468 1C23.0462 1 24.5951 1 25.9293 1.66631C27.2619 2.33419 28.1918 3.57365 30.0518 6.05257L30.9991 7.31571M30.9991 7.31571V13.6314" stroke="#0C413E" stroke-width="2" stroke-linecap="round" stroke-linejoin="round"/>
<path d="M25.4734 17.5791C22.4214 17.5791 19.9473 20.0075 19.9473 23.0011C19.9473 24.7143 20.6388 26.0453 22.0204 27.2342C22.993 28.0727 24.7645 29.8711 25.4734 31C26.2171 29.8947 27.9523 28.0727 28.9281 27.2342C30.3096 26.0453 30.9996 24.7143 30.9996 23.0027C30.9996 20.0059 28.5254 17.5791 25.4734 17.5791Z" stroke="#0C413E" stroke-width="2" stroke-linecap="round" stroke-linejoin="round"/>
<path d="M25.4741 23.105H25.4877" stroke="#0C413E" stroke-width="2" stroke-linecap="round" stroke-linejoin="round"/>
</svg>
