<svg width="33" height="33" viewBox="0 0 33 33" fill="none" xmlns="http://www.w3.org/2000/svg">
<path d="M26.8866 30.3062C27.417 30.3062 27.9257 30.0954 28.3008 29.7204C28.6758 29.3453 28.8866 28.8366 28.8866 28.3062C28.8866 27.7757 28.6758 27.267 28.3008 26.8919C27.9257 26.5169 27.417 26.3062 26.8866 26.3062C26.3561 26.3062 25.8474 26.5169 25.4723 26.8919C25.0973 27.267 24.8866 27.7757 24.8866 28.3062C24.8866 28.8366 25.0973 29.3453 25.4723 29.7204C25.8474 30.0954 26.3561 30.3062 26.8866 30.3062ZM13.5532 30.3062C14.0837 30.3062 14.5924 30.0954 14.9674 29.7204C15.3425 29.3453 15.5532 28.8366 15.5532 28.3062C15.5532 27.7757 15.3425 27.267 14.9674 26.8919C14.5924 26.5169 14.0837 26.3062 13.5532 26.3062C13.0228 26.3062 12.5141 26.5169 12.139 26.8919C11.7639 27.267 11.5532 27.7757 11.5532 28.3062C11.5532 28.8366 11.7639 29.3453 12.139 29.7204C12.5141 30.0954 13.0228 30.3062 13.5532 30.3062Z" fill="#0C413E" stroke="#0C413E" stroke-width="2" stroke-linecap="round" stroke-linejoin="round"/>
<path d="M7.55322 6.30631H30.2199L27.5532 20.973M7.55322 6.30631L10.2199 20.973H27.5532M7.55322 6.30631C7.33056 5.41698 6.21989 3.63965 3.55322 3.63965M27.5532 20.973H7.85989C5.48122 20.973 4.21989 22.0143 4.21989 23.6396C4.21989 25.265 5.48122 26.3063 7.85989 26.3063H26.8866" stroke="#0C413E" stroke-width="2" stroke-linecap="round" stroke-linejoin="round"/>
</svg>
