<svg width="34" height="25" viewBox="0 0 34 25" fill="none" xmlns="http://www.w3.org/2000/svg">
<path d="M1 6.45506C1 4.52565 1 3.56 1.38212 2.82588C1.70347 2.20762 2.20762 1.70347 2.82588 1.38212C3.56 1 4.52565 1 6.45506 1H27.5449C29.4744 1 30.44 1 31.1741 1.38212C31.7924 1.70347 32.2965 2.20762 32.6179 2.82588C33 3.56 33 4.52565 33 6.45506V18.1332C33 20.0626 33 21.0282 32.6179 21.7624C32.2965 22.3806 31.7924 22.8848 31.1741 23.2061C30.44 23.5882 29.4744 23.5882 27.5449 23.5882H6.45506C4.52565 23.5882 3.56 23.5882 2.82588 23.2061C2.20762 22.8848 1.70347 22.3806 1.38212 21.7624C1 21.0282 1 20.0626 1 18.1332V6.45506Z" stroke="#0C413E" stroke-width="2"/>
<path d="M1 8.52979H33" stroke="#0C413E" stroke-width="2" stroke-linecap="round"/>
<path d="M6.70654 17.9419C6.70642 17.9742 6.68025 18.0004 6.64795 18.0005C6.62348 18.0005 6.60213 17.9856 6.59326 17.9644L6.58936 17.9419C6.58936 17.9094 6.61546 17.8833 6.64795 17.8833L6.67041 17.8872C6.69166 17.8961 6.70654 17.9174 6.70654 17.9419Z" fill="#0C413E" stroke="#0C413E" stroke-width="2"/>
</svg>
