<svg width="35" height="35" viewBox="0 0 35 35" fill="none" xmlns="http://www.w3.org/2000/svg">
<path d="M1.88672 33.9731H5.44227M5.44227 33.9731H30.3312M5.44227 33.9731L5.44227 13.2229M33.8867 33.9731H30.3312M30.3312 33.9731V13.2229M5.44227 13.2229C5.3758 13.1847 5.31058 13.1444 5.24672 13.102L4.28672 12.462C3.60806 12.0094 3.10571 11.3371 2.86391 10.558C2.62212 9.77885 2.65559 8.94029 2.95872 8.18292L4.54805 4.20781C4.81203 3.54809 5.26763 2.98259 5.85607 2.58428C6.44452 2.18596 7.13881 1.9731 7.84939 1.97314L27.9241 1.97314C28.6346 1.9731 29.3289 2.18596 29.9174 2.58428C30.5058 2.98259 30.9614 3.54809 31.2254 4.20781L32.8147 8.18292C33.1178 8.94029 33.1513 9.77885 32.9095 10.558C32.6677 11.3371 32.1654 12.0094 31.4867 12.462L30.5267 13.102C30.4629 13.1444 30.3976 13.1847 30.3312 13.2229M5.44227 13.2229C6.01658 13.5546 6.67221 13.7191 7.33508 13.6977C7.99795 13.6764 8.64163 13.47 9.19339 13.102L12.5534 10.862L15.9134 13.102C16.4977 13.4919 17.1843 13.6999 17.8867 13.6999C18.5891 13.6999 19.2758 13.4919 19.8601 13.102L23.2201 10.862L26.5801 13.102C27.1318 13.47 27.7755 13.6764 28.4384 13.6977C29.1012 13.7191 29.7569 13.5546 30.3312 13.2229" stroke="#0C413E" stroke-width="2" stroke-linecap="round" stroke-linejoin="round"/>
<path d="M21.4431 33.9728V25.0839C21.4431 24.1409 21.0685 23.2365 20.4017 22.5697C19.7349 21.9029 18.8306 21.5283 17.8876 21.5283C16.9446 21.5283 16.0402 21.9029 15.3734 22.5697C14.7066 23.2365 14.332 24.1409 14.332 25.0839V33.9728" stroke="#0C413E" stroke-width="2"/>
</svg>
