<svg width="280" height="106" viewBox="0 0 280 106" fill="none" xmlns="http://www.w3.org/2000/svg">
<path d="M111.059 14.5946L111.009 14.5032C111.562 12.4185 112.033 8.68422 112.033 8.68422C111.097 10.1833 108.263 12.757 107.139 13.6328C105.979 14.5663 104.72 15.3786 103.385 16.0561L105.306 13.2191C103.558 13.0613 101.798 13.0703 100.052 13.2459C92.3722 13.7349 85.9552 16.6525 80.8725 20.2309C80.8725 19.8172 80.8337 19.4088 80.8116 19.0005C80.7618 18.1275 80.4002 17.2986 79.7888 16.6563C79.1775 16.014 78.3547 15.5985 77.4619 15.4811C77.385 15.4662 77.3092 15.4464 77.2349 15.422L77.4176 15.379C78.2207 15.2173 78.9469 14.8044 79.485 14.2036C80.023 13.6029 80.3432 12.8474 80.3963 12.0531C80.4406 10.9463 80.3188 9.83405 80.2745 8.72183C80.2745 8.72183 80.2745 8.72183 80.2413 8.67885H79.7596C79.7596 8.80243 79.7596 8.90451 79.7596 9.0066C79.7926 9.44144 79.6945 9.87621 79.4773 10.2579C79.26 10.6395 78.9329 10.9515 78.536 11.1558C78.0284 11.4351 77.4582 11.59 76.875 11.6072C75.5849 11.6609 74.3004 11.72 72.9993 11.7952C72.6574 11.8123 72.319 11.8701 71.9916 11.9672C71.8563 12.009 71.7233 12.0574 71.593 12.1122C71.6123 11.7385 71.6604 11.3667 71.7369 11C71.8512 10.4095 72.037 9.83413 72.2906 9.286C72.5579 8.74743 72.9967 8.30666 73.5421 8.02894C74.0876 7.75121 74.7107 7.65128 75.3192 7.74393H75.7012C75.7012 7.52901 75.751 7.34096 75.7732 7.12603L72.2685 6.7338C70.8669 6.56105 69.4442 6.8037 68.1873 7.42987C66.9304 8.05605 65.8981 9.03648 65.2258 10.2424C64.4617 11.5749 63.7087 12.9289 62.9447 14.24C62.8948 14.3259 62.8339 14.4065 62.7343 14.557C62.7343 14.428 62.7343 14.3958 62.7343 14.3582C63.0554 11.6681 63.3784 8.98153 63.7032 6.29858C63.7355 6.09169 63.7817 5.88708 63.8416 5.68605C63.9815 5.04822 64.3238 4.46893 64.8203 4.0295C65.3168 3.59007 65.9426 3.31256 66.61 3.23594C66.9788 3.21768 67.3484 3.21768 67.7173 3.23594L67.7893 2.65565L65.414 2.387C64.7816 2.29067 64.1437 2.23146 63.5039 2.20969C62.5923 2.18554 61.6935 2.42232 60.9196 2.8905C60.1458 3.35868 59.531 4.03755 59.152 4.84248C58.7312 5.62401 58.5552 6.50793 58.6457 7.38533C58.7362 8.26273 59.0893 9.09526 59.6614 9.78032C60.287 10.6131 60.9459 11.3922 61.5716 12.2519C61.9592 12.7464 62.1602 13.3549 62.1411 13.9759C62.1219 14.5969 61.8837 15.1927 61.4664 15.6638C60.6985 15.7735 59.9519 15.9945 59.2517 16.3193C57.9823 16.9593 56.9506 17.968 56.3006 19.2047C56.4114 17.2381 56.3006 15.5456 55.1213 13.4662C54.9674 12.9075 55.0284 12.3135 55.2929 11.7952C55.5272 11.328 55.6248 10.8073 55.575 10.29C55.5252 9.77267 55.33 9.27855 55.0106 8.86153C54.4569 8.10393 53.9032 7.36245 53.3496 6.60485C53.1933 6.38996 53.065 6.15716 52.9675 5.91172C52.8059 5.5606 52.7682 5.16752 52.8603 4.79347C52.9524 4.41943 53.1691 4.08535 53.4769 3.8431C53.5766 3.75713 53.6818 3.6819 53.787 3.60668L53.571 3.31654L53.3828 3.43474L51.7218 4.55234C51.1677 4.92974 50.7673 5.48362 50.5903 6.11774C50.4133 6.75185 50.4708 7.4261 50.7529 8.02333C50.7529 8.06094 50.7529 8.09855 50.8027 8.18452C50.7665 8.15529 50.7332 8.12292 50.703 8.08781C50.2695 7.6603 49.7044 7.38135 49.0931 7.29314C48.4818 7.20493 47.8575 7.31224 47.3146 7.59886C46.5727 8.01259 45.8861 8.53377 45.1774 9.01197C45.1774 9.01197 45.1774 9.01197 45.1774 9.04959L45.3823 9.33436C45.4598 9.28063 45.5262 9.23227 45.5927 9.19466C45.8645 9.00452 46.1867 8.89387 46.5213 8.87577C46.8559 8.85768 47.1888 8.93291 47.4807 9.09257C47.8675 9.29141 48.1983 9.5792 48.4441 9.93077C48.9977 10.6991 49.5514 11.4621 50.1051 12.2197C50.257 12.4173 50.4316 12.5976 50.6255 12.757C50.938 13.013 51.3009 13.2046 51.6921 13.32C52.0833 13.4355 52.4947 13.4724 52.9011 13.4286C53.3055 13.3879 53.714 13.4433 54.0915 13.5898C55.3926 15.6907 55.4535 17.3241 55.3206 19.3927C52.4254 19.6063 49.6025 20.3752 47.0156 21.6548L50.7972 24.2446C47.9236 25.4858 46.0356 26.829 45.5207 28.6075C43.2285 36.4575 53.9752 39.7244 54.0859 39.6814C52.1093 39.3188 50.1639 38.8104 48.2669 38.1608C44.657 36.7531 42.7302 34.5017 42.1765 31.2672C41.5786 27.8284 45.1331 25.4535 48.0067 24.2123L44.2251 21.6225C45.2715 21.0369 48.5493 19.6345 49.3908 19.57C47.5583 16.622 44.9396 14.2088 41.8111 12.5851C41.5232 12.4507 41.2131 12.3379 40.892 12.2143C42.1766 11.1193 43.3099 9.86779 44.2639 8.49079C44.2639 8.45855 38.2178 6.77678 37.7416 6.64783C37.7416 6.90036 39.6296 10.6508 35.5878 12.4776C35.8204 10.7206 36.0474 8.96899 36.2799 7.21737C34.2214 7.65104 32.2167 8.29772 30.3003 9.1463L34.547 11.9725C13.5075 18.7372 15.4121 34.5394 22.0119 36.839C18.8989 38.2469 16.3639 40.6294 14.8142 43.6037C7.36731 57.7241 1.25479 66.6756 2.39535 66.6756C13.3248 66.6273 17.4884 59.8196 19.0442 53.243C19.9799 49.2562 20.7993 44.3882 23.2355 41.9058C25.1512 39.445 28.9715 37.9674 29.2594 37.8599C27.2153 39.2165 25.5384 41.0316 24.3712 43.1511C23.204 45.2707 22.5808 47.6321 22.5545 50.0353C22.5494 53.3138 23.6804 56.4987 25.7658 59.0781C24.6677 61.9689 22.7289 64.4884 20.1845 66.331C17.6401 68.1736 14.5994 69.2601 11.4312 69.4588L11.5032 69.7275C11.9318 71.4195 12.1567 73.1541 12.1732 74.8964V75.2026C12.1821 79.4034 10.9734 83.522 8.68504 87.0878C8.74255 91.6589 10.2378 96.1038 12.9704 99.8274L13.9837 101.052C16.3478 101.778 25.954 101.729 68.6142 101.09C99.354 100.633 112.354 100.295 110.25 99.2847C108.744 98.5593 102.604 98.4142 84.2277 98.3874C82.6719 95.5343 79.7264 88.7481 81.6753 80.9464C82.4394 77.9053 83.2606 74.9895 84.1391 72.1991C82.2139 71.3236 80.4485 70.1494 78.9125 68.7227C76.0262 78.3849 75.8123 88.6142 78.2924 98.382H68.6475C62.3633 98.382 56.212 98.2316 50.4207 98.0327C48.1672 96.7325 44.6237 94.8089 44.5296 94.7498C41.2871 92.6971 38.623 89.8922 36.7785 86.589C34.934 83.2858 33.9672 79.5883 33.9656 75.8313C33.9656 75.5626 33.9656 75.294 33.9656 75.0253C32.0056 76.4062 28.1521 76.9435 26.9451 77.0832C29.1597 84.7882 33.877 91.6603 40.9252 96.265L42.625 97.7372C30.5218 97.2483 20.7716 96.7701 15.9824 97.4525C13.9817 93.5441 13.4212 89.0884 14.3944 84.8277C15.3676 80.567 17.8157 76.7586 21.3309 74.0367C21.8181 74.0797 22.3053 74.1065 22.7981 74.1065C29.7134 74.1065 38.7272 70.2863 40.8699 62.4739C42.7468 55.6501 40.3162 50.4329 38.1735 47.9666C40.4546 49.5785 44.7677 52.3027 44.7677 62.2375C53.7537 70.6409 76.2826 65.3485 76.4431 65.2947C73.1876 56.6978 75.3358 48.3535 75.3358 48.3535C75.1974 66.3747 91.6358 72.6182 99.4204 72.2367C102.577 76.2655 104.283 81.1886 104.276 86.2496C104.277 88.4662 103.953 90.6716 103.313 92.7994L106.817 95.2441C108.701 91.4999 109.511 87.333 109.164 83.1801C108.818 79.0273 107.326 75.0415 104.846 71.6403C103.826 70.248 102.652 68.9672 101.347 67.8201C99.2362 66.8589 97.2888 65.5906 95.5724 64.0589C93.1866 61.9564 91.2783 59.3945 89.9693 56.5366C95.434 44.0013 101.142 35.528 103.949 31.7239C102.812 30.2127 101.303 29.0027 99.5588 28.2045C102.61 28.0057 106.64 30.5257 106.64 30.5257C109.89 32.46 111.424 33.9322 112.565 36.1352C113.417 37.7793 119.397 38.3274 120.93 35.845C119.375 30.8588 116.119 21.9342 111.059 14.5946ZM63.2824 15.1695C64.0806 14.2141 65.0957 13.4508 66.2482 12.9391C67.4008 12.4273 68.6596 12.1812 69.9264 12.2197C70.3528 12.2197 70.7846 12.2519 71.2331 12.2895C70.5472 12.6808 69.9917 13.2553 69.633 13.9444C69.4513 14.3077 69.1973 14.6324 68.8856 14.8998C68.5739 15.1673 68.2107 15.3721 67.817 15.5026C67.8194 15.5276 67.8194 15.5528 67.817 15.5778L64.65 15.5187C64.0963 15.5187 63.5426 15.5187 62.989 15.5187C63.0609 15.4005 63.1772 15.2984 63.2824 15.1695ZM70.9175 29.5317C69.4324 27.5649 67.5242 25.935 65.3254 24.755C65.0541 24.6261 64.7718 24.5132 64.4728 24.3735C65.9091 23.7086 67.2523 22.869 68.4703 21.8751C67.7284 21.4775 62.9336 20.102 62.1806 19.8602C62.1142 20.0482 63.2879 22.7348 59.1908 23.9867C59.6725 22.7025 60.1597 21.413 60.658 20.1288C59.5412 19.7837 58.3878 19.562 57.2197 19.4679C57.7766 18.455 58.6379 17.6305 59.6891 17.1038C61.2449 16.3569 62.9668 16.3838 64.6278 16.4214L68.5423 16.4966C69.0901 16.7713 69.5541 17.1808 69.8877 17.6841C70.2659 18.2719 70.8029 18.748 71.4403 19.0606C72.0777 19.3732 72.7911 19.5104 73.5031 19.4572C74.7655 19.4088 76.0334 19.3282 77.2958 19.2853C77.6577 19.2692 78.0203 19.2962 78.3754 19.3659C78.773 19.4251 79.1493 19.5787 79.471 19.813C79.7926 20.0474 80.0496 20.3552 80.2192 20.7091C76.7481 23.258 73.6228 26.2224 70.9175 29.5317Z" fill="white"/>
<path d="M134.434 101.401H133.62V95.8726H134.434V101.401ZM137.756 98.9406H134.329V98.2528H137.756V98.9406ZM137.684 95.8726H138.498V101.401H137.684V95.8726Z" fill="white"/>
<path d="M144.217 101.466C143.895 101.483 143.572 101.437 143.268 101.33C142.965 101.223 142.687 101.057 142.451 100.843C142.223 100.596 142.048 100.307 141.938 99.9929C141.827 99.6789 141.783 99.3466 141.809 99.0158V95.8726H142.617V98.9889C142.576 99.474 142.726 99.9561 143.038 100.338C143.194 100.485 143.38 100.598 143.584 100.671C143.788 100.744 144.006 100.775 144.223 100.762C144.442 100.776 144.661 100.745 144.867 100.672C145.073 100.599 145.261 100.485 145.419 100.338C145.728 99.9553 145.877 99.4733 145.834 98.9889V95.8726H146.626V99.0158C146.65 99.3465 146.605 99.6785 146.495 99.9923C146.385 100.306 146.211 100.595 145.983 100.843C145.748 101.057 145.47 101.223 145.166 101.33C144.863 101.437 144.54 101.483 144.217 101.466Z" fill="white"/>
<path d="M149.92 101.402V95.8728H152.135C152.573 95.8634 153.008 95.9421 153.414 96.1039C153.747 96.24 154.031 96.4703 154.227 96.7648C154.412 97.0799 154.51 97.4364 154.51 97.7991C154.51 98.1618 154.412 98.5182 154.227 98.8334C154.03 99.1263 153.747 99.3547 153.414 99.4889C153.009 99.6533 152.573 99.7321 152.135 99.7199H150.363L150.728 99.3599V101.402H149.92ZM150.734 99.4352L150.368 99.0483H152.118C152.54 99.0778 152.96 98.9617 153.303 98.7205C153.43 98.6022 153.532 98.46 153.601 98.3025C153.67 98.1451 153.706 97.9756 153.706 97.8044C153.706 97.6332 153.67 97.4638 153.601 97.3063C153.532 97.1489 153.43 97.0067 153.303 96.8883C152.96 96.6472 152.54 96.5311 152.118 96.5606H150.368L150.734 96.1683V99.4352ZM153.729 101.402L152.279 99.4137H153.148L154.615 101.418L153.729 101.402Z" fill="white"/>
<path d="M158.513 101.401V96.5657H156.559V95.8779H161.27V96.5657H159.321V101.401H158.513Z" fill="white"/>
<path d="M166.275 101.466C165.863 101.47 165.453 101.397 165.068 101.251C164.709 101.118 164.381 100.915 164.105 100.654C163.835 100.4 163.618 100.097 163.468 99.7625C163.166 99.0427 163.166 98.2364 163.468 97.5166C163.618 97.1802 163.835 96.8754 164.105 96.6193C164.383 96.3634 164.708 96.161 165.063 96.0229C165.844 95.7437 166.702 95.7437 167.482 96.0229C167.84 96.1551 168.165 96.3561 168.44 96.6139C168.711 96.8682 168.926 97.1735 169.071 97.5112C169.374 98.2347 169.374 99.0444 169.071 99.7679C168.925 100.105 168.711 100.41 168.44 100.665C168.164 100.921 167.838 101.122 167.482 101.256C167.097 101.398 166.688 101.469 166.275 101.466ZM166.275 100.762C166.576 100.765 166.875 100.712 167.156 100.606C167.418 100.503 167.656 100.352 167.859 100.16C168.055 99.9648 168.211 99.735 168.318 99.4831C168.547 98.9427 168.547 98.3364 168.318 97.796C168.209 97.5464 168.054 97.3187 167.859 97.1244C167.661 96.9261 167.421 96.772 167.156 96.673C166.592 96.4582 165.965 96.4582 165.401 96.673C165.135 96.772 164.895 96.9261 164.697 97.1244C164.496 97.3154 164.336 97.5438 164.227 97.796C164.005 98.3379 164.005 98.9413 164.227 99.4831C164.334 99.7377 164.494 99.9681 164.697 100.16C164.9 100.352 165.139 100.503 165.401 100.606C165.678 100.711 165.973 100.763 166.27 100.762H166.275Z" fill="white"/>
<path d="M173.29 101.401L171.386 95.8726H172.222L173.971 100.977H173.551L175.367 95.8726H176.114L177.886 100.977H177.482L179.253 95.8726H180.029L178.124 101.401H177.277L175.616 96.6731H175.832L174.171 101.401H173.29Z" fill="white"/>
<path d="M182.659 101.401V95.8726H183.329L187.094 100.418H186.745V95.8726H187.559V101.401H186.889L183.124 96.8612H183.473V101.401H182.659Z" fill="white"/>
<path d="M190.897 101.401V95.8726H191.708V101.401H190.897Z" fill="white"/>
<path d="M194.181 101.401L196.761 95.8726H197.569L200.155 101.401H199.313L197.01 96.3185H197.337L195.033 101.401H194.181ZM195.288 100.021L195.504 99.3865H198.71L198.948 100.021H195.288Z" fill="white"/>
<path d="M206.444 101.401V95.8726H207.258V101.401H206.444ZM207.164 100.069L207.12 99.1071L210.353 95.8833H211.278L208.781 98.4462L208.327 98.9352L207.164 100.069ZM210.486 101.401L208.172 98.7633L208.725 98.183L211.466 101.407L210.486 101.401Z" fill="white"/>
<path d="M214.91 101.401L213.005 95.8726H213.841L215.591 100.977H215.17L216.986 95.8726H217.733L219.505 100.977H219.101L220.873 95.8726H221.648L219.743 101.401H218.89L217.229 96.6731H217.451L215.79 101.401H214.91Z" fill="white"/>
<path d="M224.267 101.401V95.8726H225.083V101.401H224.267Z" fill="white"/>
<path d="M227.551 101.401L230.131 95.8726H230.939L233.525 101.401H232.672L230.369 96.3185H230.69L228.387 101.401H227.551ZM228.658 100.021L228.874 99.3865H232.08L232.318 100.021H228.658Z" fill="white"/>
<path d="M236.852 101.401V96.5657H234.897V95.8779H239.609V96.5657H237.655V101.401H236.852Z" fill="white"/>
<path d="M244.614 101.466C244.2 101.47 243.788 101.397 243.402 101.251C243.042 101.118 242.714 100.915 242.438 100.655C242.168 100.402 241.953 100.098 241.807 99.7627C241.504 99.0429 241.504 98.2366 241.807 97.5168C241.953 97.1795 242.168 96.8743 242.438 96.6195C242.717 96.3624 243.044 96.1599 243.402 96.0231C244.181 95.7438 245.037 95.7438 245.816 96.0231C246.175 96.1539 246.503 96.3551 246.779 96.6141C247.05 96.8683 247.265 97.1737 247.41 97.5114C247.706 98.2363 247.706 99.0432 247.41 99.7681C247.264 100.105 247.05 100.411 246.779 100.665C246.502 100.923 246.174 101.124 245.816 101.256C245.432 101.399 245.025 101.47 244.614 101.466ZM244.614 100.762C244.917 100.764 245.217 100.711 245.5 100.606C245.76 100.502 245.996 100.351 246.198 100.16C246.397 99.9666 246.555 99.7365 246.663 99.4833C246.884 98.9414 246.884 98.338 246.663 97.7962C246.554 97.5453 246.396 97.3172 246.198 97.1245C246.001 96.9274 245.763 96.7735 245.5 96.6732C245.219 96.5636 244.918 96.5089 244.614 96.512C244.315 96.5094 244.017 96.5642 243.739 96.6732C243.475 96.7734 243.235 96.9273 243.036 97.1245C242.838 97.3172 242.68 97.5453 242.571 97.7962C242.35 98.338 242.35 98.9414 242.571 99.4833C242.679 99.7365 242.837 99.9666 243.036 100.16C243.239 100.351 243.478 100.503 243.739 100.606C244.015 100.71 244.308 100.762 244.603 100.762H244.614ZM244.016 95.4266L245.124 94.395H246.115L244.714 95.4266H244.016Z" fill="white"/>
<path d="M251.635 101.401L249.73 95.8726H250.572L252.322 100.977H251.912L253.728 95.8726H254.475L256.253 100.977H255.843L257.62 95.8726H258.39L256.485 101.401H255.633L253.972 96.6731H254.193L252.532 101.401H251.635Z" fill="white"/>
<path d="M157.234 52.1309L158.209 57.3911L156.891 56.7732C154.549 55.6986 148.979 54.0275 146.371 54.0275H139.129V66.8691C139.837 66.7327 140.557 66.6679 141.278 66.6757C141.909 66.6757 142.496 66.7241 143.083 66.7724L144.744 67.0572C145.757 67.2586 146.788 67.3701 147.822 67.3903C149.107 67.4121 150.362 67.0105 151.382 66.2512L152.069 65.7784L154.411 68.8572L153.923 69.142C152.365 70.022 150.599 70.4959 148.796 70.5175C147.99 70.5245 147.186 70.4288 146.405 70.2327C145.668 70.0876 144.937 69.8996 144.256 69.6954C142.97 69.2462 141.62 68.9907 140.253 68.9378C139.883 68.9466 139.513 68.9771 139.146 69.0291V85.6157H133.072V52.1309H157.234Z" fill="white"/>
<path d="M162.256 85.5781V52.2974H168.307V83.762H175.583C177.88 83.762 184.275 82.0802 186.23 81.0325L187.642 80.3017L186.424 85.5781H162.256Z" fill="white"/>
<path d="M209.185 51.1152C219.976 51.1152 228.957 57.939 228.957 68.6959C228.957 79.4527 219.976 86.2711 209.185 86.2711C195.853 86.2711 189.309 77.2229 189.309 68.6959C189.309 60.1688 195.853 51.1152 209.185 51.1152ZM195.56 66.1007C195.56 74.445 201.81 84.0628 211.134 84.0628C218.753 84.0628 222.662 78.1524 222.662 71.2696C222.662 62.8339 216.505 53.3558 207.081 53.3558C199.513 53.3397 195.56 59.2178 195.56 66.1007Z" fill="white"/>
<path d="M228.686 52.1309H235.18L248.119 81.5591C248.806 80.1352 249.487 78.6684 250.124 77.2606L255.107 66.6005C253.158 62.0012 251.153 57.4663 249.105 52.8562L248.811 52.147H255.4L255.55 52.5231C259.846 62.1946 264.043 71.9037 268.284 81.5752L270.189 77.4487C270.189 77.4003 273.605 69.8673 273.605 69.8673C274.419 68.0768 274.834 66.1396 274.823 64.1826C274.811 60.6579 273.515 57.2509 271.163 54.5649L269.115 52.147H278.488L278.632 52.5231C279.514 54.4831 279.979 56.5957 280 58.7343C279.996 60.8886 279.53 63.0186 278.632 64.9886C277.851 66.8853 276.777 68.7497 275.753 70.958C273.655 75.4123 271.6 79.8666 269.552 84.2725L270.233 85.648H263.356L256.341 69.4052L249.409 84.2349L250.09 85.6104H243.186L242.992 85.2289C238.356 74.429 233.685 63.6256 228.979 52.8186L228.686 52.1309Z" fill="white"/>
</svg>
