<svg width="132" height="50" viewBox="0 0 132 50" fill="none" xmlns="http://www.w3.org/2000/svg">
<path d="M52.3562 6.88439L52.3327 6.84131C52.5938 5.85794 52.8156 4.09649 52.8156 4.09649C52.3745 4.8036 51.0381 6.01761 50.5082 6.43073C49.9614 6.87108 49.3682 7.25421 48.7386 7.57377L49.6443 6.23557C48.8202 6.16114 47.9905 6.16539 47.1672 6.24824C43.547 6.47888 40.5218 7.85509 38.1257 9.54304C38.1257 9.34789 38.1074 9.15527 38.0969 8.96265C38.0735 8.55085 37.903 8.15986 37.6148 7.85689C37.3266 7.55393 36.9387 7.35792 36.5178 7.30258C36.4816 7.29551 36.4458 7.2862 36.4108 7.2747L36.4969 7.25443C36.8755 7.17813 37.2179 6.98336 37.4715 6.69998C37.7252 6.4166 37.8761 6.06026 37.9012 5.68559C37.9221 5.1635 37.8646 4.63886 37.8438 4.11423C37.8438 4.11423 37.8438 4.11423 37.8281 4.09395H37.601C37.601 4.15225 37.601 4.2004 37.601 4.24856C37.6166 4.45367 37.5703 4.65875 37.4679 4.83877C37.3655 5.01879 37.2113 5.16597 37.0242 5.26234C36.7849 5.39408 36.5161 5.46716 36.2411 5.47523C35.633 5.50058 35.0274 5.52846 34.414 5.56394C34.2528 5.57201 34.0933 5.59925 33.939 5.64504C33.8752 5.66478 33.8125 5.68762 33.751 5.71347C33.7601 5.5372 33.7828 5.36183 33.8189 5.18884C33.8727 4.91029 33.9604 4.6389 34.0799 4.38035C34.2059 4.1263 34.4128 3.9184 34.6699 3.78739C34.9271 3.65639 35.2208 3.60925 35.5077 3.65296H35.6878C35.6878 3.55158 35.7113 3.46287 35.7217 3.3615L34.0695 3.17648C33.4087 3.09499 32.738 3.20945 32.1455 3.50482C31.553 3.80018 31.0663 4.26265 30.7494 4.83148C30.3892 5.46003 30.0342 6.09871 29.674 6.71712C29.6505 6.75767 29.6218 6.79569 29.5748 6.86665C29.5748 6.80583 29.5748 6.79062 29.5748 6.77288C29.7262 5.50396 29.8784 4.23673 30.0316 2.97119C30.0468 2.8736 30.0686 2.77708 30.0968 2.68226C30.1628 2.3814 30.3241 2.10815 30.5582 1.90087C30.7923 1.69359 31.0873 1.56269 31.4019 1.52655C31.5758 1.51793 31.75 1.51793 31.9239 1.52655L31.9579 1.25282L30.8381 1.1261C30.5399 1.08066 30.2392 1.05273 29.9376 1.04246C29.5078 1.03107 29.0841 1.14276 28.7193 1.3636C28.3545 1.58444 28.0647 1.90466 27.886 2.28435C27.6876 2.65299 27.6047 3.06994 27.6473 3.48381C27.69 3.89767 27.8564 4.29038 28.1261 4.61352C28.4211 5.00636 28.7317 5.37386 29.0266 5.77937C29.2094 6.0126 29.3042 6.29966 29.2951 6.59258C29.2861 6.8855 29.1738 7.16654 28.9771 7.38875C28.6151 7.44048 28.2631 7.54471 27.933 7.69796C27.3346 7.99981 26.8482 8.47564 26.5418 9.05896C26.594 8.13135 26.5418 7.33299 25.9858 6.35216C25.9133 6.0886 25.942 5.80841 26.0667 5.56394C26.1772 5.34356 26.2232 5.09796 26.1997 4.85394C26.1762 4.60991 26.0842 4.37683 25.9336 4.18013C25.6726 3.82277 25.4116 3.47301 25.1506 3.11565C25.0769 3.01429 25.0164 2.90448 24.9705 2.78871C24.8943 2.62308 24.8765 2.43767 24.9199 2.26123C24.9633 2.08479 25.0655 1.92721 25.2106 1.81294C25.2576 1.77239 25.3072 1.73691 25.3568 1.70142L25.255 1.56456L25.1662 1.62032L24.3832 2.14749C24.122 2.32551 23.9332 2.58677 23.8498 2.88588C23.7663 3.18499 23.7934 3.50304 23.9264 3.78475C23.9264 3.80249 23.9264 3.82023 23.9499 3.86078C23.9328 3.84699 23.9171 3.83172 23.9029 3.81516C23.6986 3.61351 23.4321 3.48193 23.1439 3.44032C22.8558 3.39871 22.5614 3.44933 22.3055 3.58453C21.9557 3.77968 21.6321 4.02552 21.298 4.25109C21.298 4.25109 21.298 4.25109 21.298 4.26883L21.3946 4.40316C21.4311 4.37781 21.4624 4.355 21.4937 4.33726C21.6219 4.24757 21.7738 4.19538 21.9315 4.18684C22.0892 4.17831 22.2462 4.2138 22.3838 4.28911C22.5662 4.3829 22.7221 4.51865 22.838 4.68448C23.099 5.04691 23.36 5.4068 23.621 5.76416C23.6927 5.85739 23.775 5.94242 23.8664 6.01761C24.0137 6.13836 24.1848 6.22872 24.3692 6.28319C24.5536 6.33766 24.7475 6.35509 24.9391 6.33442C25.1298 6.31522 25.3224 6.34132 25.5003 6.41045C26.1137 7.40142 26.1424 8.1719 26.0798 9.14767C24.7149 9.24842 23.3841 9.61109 22.1645 10.2147L23.9473 11.4363C22.5926 12.0217 21.7026 12.6554 21.4598 13.4943C20.3792 17.1971 25.4455 18.7381 25.4977 18.7178C24.5658 18.5467 23.6488 18.307 22.7544 18.0005C21.0526 17.3365 20.1443 16.2746 19.8833 14.7488C19.6014 13.1268 21.2771 12.0065 22.6318 11.4211L20.849 10.1995C21.3423 9.92321 22.8876 9.26172 23.2843 9.2313C22.4204 7.84072 21.1858 6.7024 19.711 5.93651C19.5753 5.87315 19.4291 5.81992 19.2777 5.76163C19.8833 5.24513 20.4176 4.65478 20.8673 4.00525C20.8673 3.99004 18.017 3.19675 17.7925 3.13593C17.7925 3.25505 18.6826 5.0241 16.7772 5.88582C16.8868 5.05705 16.9938 4.23081 17.1035 3.40458C16.133 3.60914 15.1879 3.91418 14.2845 4.31445L16.2865 5.64758C6.36788 8.83846 7.26577 16.2923 10.3771 17.3771C8.90953 18.0412 7.71446 19.165 6.98388 20.5679C3.47321 27.2285 0.591602 31.4509 1.12929 31.4509C6.28174 31.4281 8.24458 28.2169 8.97804 25.1148C9.41915 23.2342 9.80546 20.938 10.9539 19.7671C11.857 18.6063 13.658 17.9093 13.7938 17.8586C12.8301 18.4985 12.0396 19.3547 11.4893 20.3545C10.9391 21.3542 10.6453 22.4682 10.6329 23.6017C10.6305 25.1482 11.1637 26.6505 12.1468 27.8672C11.6291 29.2308 10.7151 30.4192 9.51559 31.2883C8.31609 32.1575 6.88263 32.67 5.38907 32.7638L5.423 32.8905C5.62507 33.6886 5.73105 34.5068 5.73883 35.3286V35.4731C5.74306 37.4546 5.17323 39.3973 4.09443 41.0793C4.12154 43.2355 4.82643 45.3321 6.11469 47.0885L6.59235 47.6664C7.70689 48.0085 12.2355 47.9857 32.3468 47.6841C46.8384 47.4687 52.967 47.309 51.9751 46.8326C51.2652 46.4904 48.3705 46.422 39.7074 46.4093C38.974 45.0635 37.5854 41.8625 38.5041 38.1824C38.8643 36.7479 39.2515 35.3726 39.6656 34.0563C38.758 33.6434 37.9258 33.0895 37.2017 32.4165C35.841 36.9742 35.7401 41.7993 36.9093 46.4068H32.3624C29.3999 46.4068 26.5 46.3358 23.7698 46.242C22.7075 45.6287 21.037 44.7213 20.9926 44.6935C19.464 43.7252 18.208 42.4022 17.3385 40.844C16.4689 39.2859 16.0132 37.5418 16.0124 35.7696C16.0124 35.6429 16.0124 35.5162 16.0124 35.3895C15.0884 36.0408 13.2717 36.2943 12.7027 36.3602C13.7468 39.9946 15.9706 43.2362 19.2934 45.4082L20.0947 46.1026C14.3889 45.872 9.7924 45.6464 7.53462 45.9683C6.59142 44.1247 6.32721 42.023 6.786 40.0132C7.24479 38.0035 8.39888 36.207 10.056 34.9231C10.2857 34.9434 10.5154 34.9561 10.7477 34.9561C14.0078 34.9561 18.2571 33.1541 19.2673 29.469C20.1521 26.2502 19.0063 23.7892 17.9961 22.6259C19.0715 23.3863 21.1048 24.6712 21.1048 29.3575C25.3411 33.3213 35.9618 30.8249 36.0375 30.7996C34.5028 26.7444 35.5155 22.8084 35.5155 22.8084C35.4502 31.309 43.1998 34.254 46.8697 34.0741C48.3577 35.9745 49.1619 38.2967 49.1588 40.684C49.1593 41.7295 49.0064 42.7698 48.7046 43.7735L50.3569 44.9266C51.2446 43.1605 51.6267 41.195 51.4633 39.2361C51.2998 37.2772 50.5967 35.3971 49.4276 33.7928C48.9464 33.136 48.3933 32.5318 47.778 31.9908C46.7828 31.5374 45.8648 30.9391 45.0556 30.2166C43.9309 29.2249 43.0313 28.0165 42.4141 26.6684C44.9904 20.7555 47.6814 16.7586 49.0048 14.9643C48.4688 14.2514 47.7571 13.6807 46.9349 13.3042C48.3731 13.2104 50.2733 14.3991 50.2733 14.3991C51.8055 15.3115 52.5285 16.0059 53.0662 17.045C53.4682 17.8206 56.2871 18.0791 57.0101 16.9082C56.2767 14.5562 54.7419 10.3465 52.3562 6.88439ZM29.8332 7.15558C30.2095 6.70493 30.688 6.34486 31.2314 6.10349C31.7747 5.86212 32.3682 5.74598 32.9654 5.76416C33.1664 5.76416 33.3699 5.77937 33.5814 5.79711C33.258 5.98166 32.9962 6.25264 32.827 6.57772C32.7414 6.74906 32.6216 6.90223 32.4747 7.02838C32.3277 7.15453 32.1565 7.25117 31.9709 7.31272C31.9721 7.32452 31.9721 7.3364 31.9709 7.3482L30.4779 7.32032C30.2169 7.32032 29.9559 7.32032 29.6948 7.32032C29.7288 7.26456 29.7836 7.21641 29.8332 7.15558ZM33.4326 13.9302C32.7325 13.0025 31.8329 12.2337 30.7963 11.6771C30.6684 11.6162 30.5353 11.563 30.3944 11.4971C31.0715 11.1835 31.7047 10.7874 32.2789 10.3186C31.9291 10.131 29.6688 9.48222 29.3138 9.36817C29.2824 9.45687 29.8358 10.7241 27.9043 11.3146C28.1314 10.7089 28.3611 10.1006 28.596 9.49489C28.0695 9.33208 27.5257 9.22751 26.9751 9.18315C27.2376 8.70535 27.6436 8.31641 28.1392 8.06799C28.8727 7.7157 29.6844 7.72837 30.4675 7.74611L32.3128 7.78159C32.5711 7.91115 32.7898 8.1043 32.9471 8.34171C33.1254 8.619 33.3786 8.84356 33.679 8.99101C33.9795 9.13846 34.3159 9.20315 34.6515 9.17808C35.2467 9.15527 35.8444 9.11725 36.4395 9.09698C36.6101 9.08939 36.7811 9.10216 36.9485 9.13499C37.1359 9.16293 37.3133 9.23538 37.4649 9.34592C37.6166 9.45646 37.7377 9.60165 37.8177 9.76861C36.1813 10.9709 34.7079 12.3692 33.4326 13.9302Z" fill="white"/>
<path d="M63.3764 47.8311H62.9927V45.2232H63.3764V47.8311ZM64.9425 46.6703H63.3268V46.3459H64.9425V46.6703ZM64.9085 45.2232H65.2922V47.8311H64.9085V45.2232Z" fill="white"/>
<path d="M67.9883 47.8615C67.8363 47.8698 67.6841 47.848 67.5409 47.7975C67.3978 47.7469 67.2667 47.6687 67.1557 47.5675C67.048 47.4511 66.9657 47.3148 66.9136 47.1667C66.8616 47.0186 66.841 46.8619 66.8529 46.7058V45.2232H67.234V46.6932C67.2146 46.922 67.2855 47.1494 67.4323 47.3293C67.506 47.3986 67.5937 47.4522 67.6899 47.4867C67.786 47.5212 67.8886 47.5358 67.9909 47.5295C68.0941 47.536 68.1975 47.5216 68.2945 47.4871C68.3916 47.4526 68.4802 47.3989 68.5547 47.3293C68.7006 47.149 68.7706 46.9216 68.7505 46.6932V45.2232H69.1237V46.7058C69.1351 46.8618 69.1141 47.0184 69.0621 47.1664C69.0101 47.3144 68.9281 47.4508 68.821 47.5675C68.7099 47.6687 68.5788 47.7469 68.4357 47.7975C68.2926 47.848 68.1404 47.8698 67.9883 47.8615Z" fill="white"/>
<path d="M70.6772 47.8311V45.2232H71.7213C71.9279 45.2187 72.1332 45.2558 72.3243 45.3321C72.4814 45.3964 72.6151 45.505 72.7079 45.6439C72.7951 45.7926 72.841 45.9607 72.841 46.1318C72.841 46.3029 72.7951 46.471 72.7079 46.6197C72.615 46.7578 72.4812 46.8656 72.3243 46.9289C72.1335 47.0064 71.928 47.0436 71.7213 47.0378H70.8861L71.0583 46.868V47.8311H70.6772ZM71.0609 46.9035L70.8887 46.721H71.7135C71.9126 46.7349 72.1104 46.6802 72.272 46.5664C72.3321 46.5106 72.38 46.4435 72.4126 46.3693C72.4453 46.295 72.4621 46.2151 72.4621 46.1343C72.4621 46.0536 72.4453 45.9736 72.4126 45.8994C72.38 45.8251 72.3321 45.758 72.272 45.7022C72.1104 45.5884 71.9126 45.5337 71.7135 45.5476H70.8887L71.0609 45.3626V46.9035ZM72.473 47.8311L71.7892 46.8934H72.199L72.8907 47.8387L72.473 47.8311Z" fill="white"/>
<path d="M74.728 47.8311V45.5501H73.8066V45.2257H76.0279V45.5501H75.1091V47.8311H74.728Z" fill="white"/>
<path d="M78.3874 47.8615C78.1928 47.8636 77.9996 47.8292 77.8184 47.7602C77.6488 47.6976 77.4942 47.6018 77.3643 47.4788C77.2368 47.359 77.1349 47.2161 77.0641 47.0581C76.9213 46.7186 76.9213 46.3383 77.0641 45.9987C77.1349 45.84 77.2368 45.6963 77.3643 45.5755C77.4951 45.4548 77.6483 45.3593 77.8158 45.2941C78.1839 45.1624 78.5883 45.1624 78.9565 45.2941C79.1248 45.3565 79.2784 45.4513 79.408 45.5729C79.5358 45.6929 79.6371 45.8369 79.7056 45.9962C79.8483 46.3375 79.8483 46.7194 79.7056 47.0607C79.6367 47.2197 79.5355 47.3637 79.408 47.4839C79.2777 47.6046 79.1243 47.6994 78.9565 47.7627C78.7747 47.8296 78.5818 47.8632 78.3874 47.8615ZM78.3874 47.5295C78.5293 47.5308 78.6702 47.5058 78.8025 47.456C78.9259 47.4074 79.0385 47.336 79.1339 47.2457C79.2264 47.1535 79.2999 47.0452 79.3506 46.9263C79.4585 46.6714 79.4585 46.3854 79.3506 46.1305C79.2992 46.0128 79.2258 45.9054 79.1339 45.8137C79.0407 45.7202 78.9276 45.6475 78.8025 45.6008C78.5365 45.4995 78.241 45.4995 77.975 45.6008C77.8499 45.6475 77.7368 45.7202 77.6435 45.8137C77.5485 45.9038 77.473 46.0115 77.4217 46.1305C77.3173 46.3861 77.3173 46.6707 77.4217 46.9263C77.4723 47.0464 77.5479 47.1551 77.6435 47.2457C77.739 47.336 77.8515 47.4074 77.975 47.456C78.1057 47.5053 78.2447 47.5303 78.3848 47.5295H78.3874Z" fill="white"/>
<path d="M81.6943 47.8311L80.7964 45.2232H81.1905L82.0153 47.6309H81.817L82.6731 45.2232H83.0255L83.8607 47.6309H83.6702L84.5054 45.2232H84.8708L83.973 47.8311H83.5736L82.7906 45.6008H82.8923L82.1093 47.8311H81.6943Z" fill="white"/>
<path d="M86.1108 47.8311V45.2232H86.4267L88.2016 47.3673H88.0371V45.2232H88.4208V47.8311H88.105L86.3301 45.6895H86.4945V47.8311H86.1108Z" fill="white"/>
<path d="M89.9946 47.8311V45.2232H90.3767V47.8311H89.9946Z" fill="white"/>
<path d="M91.5425 47.8311L92.7588 45.2232H93.1399L94.3588 47.8311H93.9621L92.8763 45.4335H93.0303L91.9444 47.8311H91.5425ZM92.0645 47.1798L92.1663 46.8807H93.6776L93.7898 47.1798H92.0645Z" fill="white"/>
<path d="M97.3242 47.8311V45.2232H97.7079V47.8311H97.3242ZM97.6635 47.2026L97.6427 46.7489L99.167 45.2282H99.6029L98.4257 46.4372L98.2117 46.6678L97.6635 47.2026ZM99.2296 47.8311L98.1386 46.5867L98.3996 46.313L99.6916 47.8337L99.2296 47.8311Z" fill="white"/>
<path d="M101.315 47.8311L100.417 45.2232H100.811L101.636 47.6309H101.438L102.294 45.2232H102.646L103.481 47.6309H103.291L104.126 45.2232H104.491L103.594 47.8311H103.192L102.409 45.6008H102.513L101.73 47.8311H101.315Z" fill="white"/>
<path d="M105.726 47.8311V45.2232H106.111V47.8311H105.726Z" fill="white"/>
<path d="M107.274 47.8311L108.49 45.2232H108.871L110.09 47.8311H109.688L108.602 45.4335H108.754L107.668 47.8311H107.274ZM107.796 47.1798L107.898 46.8807H109.409L109.521 47.1798H107.796Z" fill="white"/>
<path d="M111.659 47.8311V45.5501H110.738V45.2257H112.959V45.5501H112.038V47.8311H111.659Z" fill="white"/>
<path d="M115.319 47.8615C115.123 47.8637 114.929 47.8292 114.747 47.7602C114.577 47.6975 114.423 47.6018 114.293 47.4788C114.165 47.3596 114.064 47.2165 113.995 47.0581C113.852 46.7186 113.852 46.3382 113.995 45.9987C114.064 45.8396 114.165 45.6957 114.293 45.5755C114.424 45.4542 114.578 45.3587 114.747 45.2941C115.114 45.1624 115.518 45.1624 115.885 45.2941C116.054 45.3559 116.209 45.4508 116.339 45.5729C116.467 45.6929 116.568 45.8369 116.637 45.9962C116.776 46.3381 116.776 46.7187 116.637 47.0606C116.568 47.2197 116.467 47.3637 116.339 47.4839C116.208 47.6052 116.054 47.7 115.885 47.7627C115.704 47.8299 115.512 47.8634 115.319 47.8615ZM115.319 47.5295C115.461 47.5305 115.603 47.5056 115.736 47.456C115.859 47.4068 115.97 47.3354 116.065 47.2457C116.159 47.1543 116.234 47.0458 116.284 46.9263C116.389 46.6707 116.389 46.3861 116.284 46.1305C116.233 46.0122 116.159 45.9046 116.065 45.8137C115.972 45.7207 115.86 45.6481 115.736 45.6008C115.603 45.5491 115.462 45.5233 115.319 45.5248C115.177 45.5236 115.037 45.5494 114.906 45.6008C114.781 45.6481 114.668 45.7207 114.575 45.8137C114.481 45.9046 114.407 46.0122 114.355 46.1305C114.251 46.3861 114.251 46.6707 114.355 46.9263C114.406 47.0458 114.481 47.1543 114.575 47.2457C114.67 47.3357 114.783 47.4071 114.906 47.456C115.036 47.5048 115.174 47.5297 115.313 47.5295H115.319ZM115.037 45.0128L115.559 44.5262H116.026L115.366 45.0128H115.037Z" fill="white"/>
<path d="M118.628 47.8311L117.73 45.2232H118.127L118.952 47.6309H118.759L119.615 45.2232H119.967L120.805 47.6309H120.612L121.45 45.2232H121.813L120.915 47.8311H120.513L119.73 45.6008H119.834L119.051 47.8311H118.628Z" fill="white"/>
<path d="M74.1251 24.5901L74.5845 27.0714L73.9633 26.7799C72.8592 26.273 70.2334 25.4848 69.004 25.4848H65.5899V31.5422C65.9233 31.4778 66.2627 31.4472 66.6026 31.4509C66.9002 31.4509 67.1769 31.4737 67.4535 31.4965L68.2366 31.6309C68.7144 31.7258 69.2002 31.7784 69.6878 31.788C70.2937 31.7982 70.8854 31.6088 71.3662 31.2507L71.6898 31.0277L72.7939 32.4799L72.5642 32.6142C71.8297 33.0294 70.9971 33.2529 70.1472 33.2631C69.7669 33.2664 69.3878 33.2212 69.0196 33.1287C68.6725 33.0603 68.3279 32.9716 68.0069 32.8753C67.4003 32.6634 66.7639 32.5429 66.1197 32.5179C65.945 32.5221 65.7707 32.5365 65.5977 32.561V40.3849H62.7344V24.5901H74.1251Z" fill="white"/>
<path d="M76.4927 40.3671V24.6687H79.3456V39.5105H82.7753C83.8585 39.5105 86.8733 38.7172 87.7946 38.223L88.4602 37.8783L87.886 40.3671H76.4927Z" fill="white"/>
<path d="M98.6161 24.1111C103.703 24.1111 107.937 27.3299 107.937 32.4039C107.937 37.4779 103.703 40.6941 98.6161 40.6941C92.3308 40.6941 89.2456 36.4261 89.2456 32.4039C89.2456 28.3817 92.3308 24.1111 98.6161 24.1111ZM92.1925 31.1797C92.1925 35.1157 95.1393 39.6524 99.5348 39.6524C103.126 39.6524 104.969 36.8645 104.969 33.6179C104.969 29.6388 102.067 25.168 97.6242 25.168C94.0561 25.1604 92.1925 27.9331 92.1925 31.1797Z" fill="white"/>
<path d="M107.809 24.5901H110.871L116.971 38.4714C117.294 37.7997 117.615 37.1078 117.916 36.4438L120.265 31.4154C119.346 29.2459 118.401 27.1068 117.435 24.9323L117.297 24.5977H120.403L120.474 24.7751C122.499 29.3372 124.478 33.9169 126.477 38.479L127.375 36.5325C127.375 36.5097 128.985 32.9564 128.985 32.9564C129.369 32.1118 129.565 31.198 129.56 30.2749C129.554 28.6123 128.943 27.0052 127.834 25.7382L126.868 24.5977H131.287L131.355 24.7751C131.771 25.6997 131.99 26.6962 132 27.705C131.998 28.7211 131.779 29.7258 131.355 30.6551C130.987 31.5498 130.481 32.4292 129.998 33.4709C129.009 35.5719 128.04 37.673 127.075 39.7513L127.396 40.4001H124.154L120.847 32.7384L117.579 39.7335L117.9 40.3823H114.645L114.554 40.2024C112.368 35.1081 110.166 30.0122 107.947 24.9145L107.809 24.5901Z" fill="white"/>
</svg>
