<svg width="32" height="32" viewBox="0 0 32 32" fill="none" xmlns="http://www.w3.org/2000/svg">
<path d="M18.0003 20H8.00033C5.48566 20 4.22966 20 3.44833 19.2187C2.66699 18.4373 2.66699 17.1813 2.66699 14.6667V9.33333C2.66699 6.81867 2.66699 5.56267 3.44833 4.78133C4.22966 4 5.48566 4 8.00033 4H24.0003C26.515 4 27.771 4 28.5523 4.78133C29.3337 5.56267 29.3337 6.81867 29.3337 9.33333V16C29.3337 17.2427 29.3337 17.864 29.131 18.3533C28.997 18.6771 28.8005 18.9713 28.5527 19.219C28.3049 19.4668 28.0107 19.6633 27.687 19.7973C27.1977 20 26.5763 20 25.3337 20" stroke="#0C413E" stroke-width="1.5" stroke-linecap="round" stroke-linejoin="round"/>
<path d="M17.3333 22.6668C17.3333 21.606 17.7548 20.5885 18.5049 19.8384C19.2551 19.0883 20.2725 18.6668 21.3333 18.6668V16.0002C21.3333 14.9393 21.7548 13.9219 22.5049 13.1717C23.2551 12.4216 24.2725 12.0002 25.3333 12.0002V19.3335C25.3333 22.4468 25.3333 24.0028 24.704 25.1815C24.2068 26.1117 23.4449 26.8736 22.5147 27.3708C21.336 28.0002 19.78 28.0002 16.6667 28.0002H16C13.5147 28.0002 12.272 28.0002 11.2933 27.5935C10.6461 27.3258 10.0579 26.9332 9.56234 26.4381C9.06681 25.943 8.67366 25.3552 8.40533 24.7082C8 23.7282 8 22.4855 8 20.0002M18.6667 12.0002C18.6667 12.7074 18.3857 13.3857 17.8856 13.8858C17.3855 14.3859 16.7072 14.6668 16 14.6668C15.2928 14.6668 14.6145 14.3859 14.1144 13.8858C13.6143 13.3857 13.3333 12.7074 13.3333 12.0002C13.3333 11.2929 13.6143 10.6146 14.1144 10.1145C14.6145 9.61445 15.2928 9.3335 16 9.3335C16.7072 9.3335 17.3855 9.61445 17.8856 10.1145C18.3857 10.6146 18.6667 11.2929 18.6667 12.0002Z" stroke="#0C413E" stroke-width="1.5" stroke-linecap="round" stroke-linejoin="round"/>
</svg>
