<svg width="32" height="32" viewBox="0 0 32 32" fill="none" xmlns="http://www.w3.org/2000/svg">
<path d="M5.33301 18.6667H8.52634C8.91834 18.6667 9.30501 18.7547 9.65567 18.9254L12.3783 20.2427C12.729 20.4121 13.1157 20.5001 13.509 20.5001H14.8983C16.2423 20.5001 17.333 21.5547 17.333 22.8561C17.333 22.9094 17.297 22.9547 17.245 22.9694L13.857 23.9067C13.2491 24.0747 12.6008 24.0159 12.033 23.7414L9.12234 22.3334" stroke="#0C413E" stroke-width="1.5" stroke-linecap="round" stroke-linejoin="round"/>
<path d="M17.333 22.0001L23.457 20.1187C23.9901 19.9552 24.5613 19.9642 25.0891 20.1445C25.6168 20.3248 26.0741 20.6671 26.3957 21.1227C26.8877 21.8027 26.6877 22.7787 25.9703 23.1921L15.9503 28.9748C15.637 29.156 15.2901 29.2716 14.9307 29.3145C14.5712 29.3574 14.2068 29.3266 13.8597 29.2241L5.33301 26.6934M17.333 6.66675H19.9997M19.9997 16.0001H17.333C14.8183 16.0001 13.5623 16.0001 12.781 15.2187C11.9997 14.4374 11.9997 13.1814 11.9997 10.6667V8.00008C11.9997 5.48541 11.9997 4.22941 12.781 3.44808C13.5623 2.66675 14.8183 2.66675 17.333 2.66675H19.9997C22.5143 2.66675 23.7703 2.66675 24.5517 3.44808C25.333 4.22941 25.333 5.48541 25.333 8.00008V10.6667C25.333 13.1814 25.333 14.4374 24.5517 15.2187C23.7703 16.0001 22.5143 16.0001 19.9997 16.0001Z" stroke="#0C413E" stroke-width="1.5" stroke-linecap="round" stroke-linejoin="round"/>
</svg>
