<svg width="20" height="20" viewBox="0 0 20 20" fill="none" xmlns="http://www.w3.org/2000/svg">
<path d="M9.99985 1.6665C14.6024 1.6665 18.3332 5.39734 18.3332 9.99984C18.3332 14.6023 14.6024 18.3332 9.99985 18.3332C8.52714 18.3357 7.08033 17.946 5.80818 17.204L1.66985 18.3332L2.79652 14.1932C2.05398 12.9206 1.66394 11.4732 1.66652 9.99984C1.66652 5.39734 5.39735 1.6665 9.99985 1.6665ZM7.15985 6.08317L6.99318 6.08984C6.88543 6.09726 6.78014 6.12556 6.68318 6.17317C6.59283 6.22443 6.51032 6.28842 6.43818 6.36317C6.33818 6.45734 6.28152 6.539 6.22068 6.61817C5.91245 7.01892 5.74649 7.51093 5.74902 8.0165C5.75068 8.42484 5.85735 8.82234 6.02402 9.194C6.36485 9.94567 6.92568 10.7415 7.66568 11.479C7.84402 11.6565 8.01902 11.8348 8.20735 12.0007C9.12688 12.8102 10.2226 13.394 11.4073 13.7057L11.8807 13.7782C12.0349 13.7865 12.189 13.7748 12.344 13.7673C12.5867 13.7545 12.8236 13.6888 13.0382 13.5748C13.1472 13.5185 13.2537 13.4573 13.3574 13.3915C13.3574 13.3915 13.3926 13.3676 13.4615 13.3165C13.574 13.2332 13.6432 13.174 13.7365 13.0765C13.8065 13.0043 13.8649 12.9204 13.9115 12.8248C13.9765 12.689 14.0415 12.4298 14.0682 12.214C14.0882 12.049 14.0823 11.959 14.0798 11.9032C14.0765 11.814 14.0024 11.7215 13.9215 11.6823L13.4365 11.4648C13.4365 11.4648 12.7115 11.149 12.2682 10.9473C12.2218 10.9271 12.1721 10.9156 12.1215 10.9132C12.0645 10.9072 12.0069 10.9136 11.9525 10.9318C11.8982 10.9501 11.8484 10.9798 11.8065 11.019C11.8024 11.0173 11.7465 11.0648 11.144 11.7948C11.1094 11.8413 11.0618 11.8764 11.0072 11.8957C10.9526 11.915 10.8934 11.9176 10.8373 11.9032C10.783 11.8887 10.7298 11.8703 10.6782 11.8482C10.5749 11.8048 10.539 11.7882 10.4682 11.7582C9.98975 11.5498 9.54688 11.2677 9.15568 10.9223C9.05068 10.8307 8.95318 10.7307 8.85318 10.634C8.52536 10.32 8.23964 9.96483 8.00318 9.57734L7.95402 9.49817C7.91924 9.44467 7.89072 9.38735 7.86902 9.32734C7.83735 9.20484 7.91985 9.1065 7.91985 9.1065C7.91985 9.1065 8.12235 8.88484 8.21652 8.76484C8.30818 8.64817 8.38568 8.53484 8.43568 8.454C8.53402 8.29567 8.56485 8.13317 8.51318 8.00734C8.27985 7.43734 8.03874 6.87039 7.78985 6.3065C7.74068 6.19484 7.59485 6.11484 7.46235 6.099C7.41735 6.09345 7.37235 6.089 7.32735 6.08567C7.21546 6.07925 7.10326 6.08037 6.99152 6.089L7.15985 6.08317Z" fill="white"/>
</svg>
